<svg width="456" height="344" viewBox="0 0 456 344" fill="none" xmlns="http://www.w3.org/2000/svg">
<circle cx="150.5" cy="150.5" r="150.5" fill="#F8F8F8"/>
<g clip-path="url(#clip0)">
<path d="M240.946 328.517L240.398 328.311C240.277 328.266 228.275 323.678 222.653 313.275C217.031 302.872 219.784 290.346 219.812 290.221L219.942 289.651L220.491 289.856C220.611 289.901 232.612 294.489 238.235 304.892C243.857 315.295 241.104 327.821 241.076 327.946L240.946 328.517ZM223.554 312.791C228.307 321.587 237.791 326.095 240.194 327.125C240.651 324.555 242.083 314.163 237.334 305.376C232.586 296.59 223.098 292.074 220.694 291.043C220.237 293.614 218.805 304.004 223.554 312.791V312.791Z" fill="#3F3D56"/>
<path d="M226.95 309.626C237.053 315.691 240.945 327.738 240.945 327.738C240.945 327.738 228.455 329.951 218.351 323.886C208.248 317.821 204.356 305.774 204.356 305.774C204.356 305.774 216.846 303.561 226.95 309.626Z" fill="#FFA451"/>
<path d="M419.281 327.946C419.252 327.821 416.499 315.295 422.122 304.892C427.744 294.489 439.745 289.901 439.866 289.856L440.414 289.651L440.544 290.221C440.572 290.346 443.325 302.872 437.703 313.275C432.081 323.678 420.079 328.266 419.959 328.311L419.41 328.516L419.281 327.946ZM439.662 291.043C437.258 292.074 427.77 296.59 423.022 305.376C418.273 314.163 419.706 324.555 420.163 327.124C422.566 326.095 432.05 321.587 436.803 312.791C441.552 304.004 440.119 293.614 439.662 291.043Z" fill="#3F3D56"/>
<path d="M433.407 309.626C423.303 315.691 419.412 327.738 419.412 327.738C419.412 327.738 431.902 329.951 442.005 323.886C452.109 317.821 456 305.774 456 305.774C456 305.774 443.51 303.561 433.407 309.626Z" fill="#5A60CE"/>
<path d="M440.65 327.433H199.827V328.454H440.65V327.433Z" fill="#3F3D56"/>
<path d="M274.964 90H16V228.697H274.964V90Z" fill="#3F3D56"/>
<path d="M265.004 213.575H28.9915V219.192H265.004V213.575Z" fill="#D0CDE1"/>
<path d="M164.969 213.575H28.9915V219.192H164.969V213.575Z" fill="#5A60CE"/>
<path d="M28.9915 209.446L28.9803 201.665L37.8085 205.543L28.9915 209.446Z" fill="#5A60CE"/>
<path d="M45.8805 201.476H42.8491V209.254H45.8805V201.476Z" fill="#5A60CE"/>
<path d="M51.9432 201.476H48.9119V209.254H51.9432V201.476Z" fill="#5A60CE"/>
<path d="M260.674 198.02H30.2906V102.53H260.674V198.02ZM31.1568 197.156H259.807V103.394H31.1568V197.156Z" fill="#D0CDE1"/>
<path d="M145.915 171.231C157.156 171.231 166.269 162.139 166.269 150.923C166.269 139.708 157.156 130.615 145.915 130.615C134.674 130.615 125.562 139.708 125.562 150.923C125.562 162.139 134.674 171.231 145.915 171.231Z" fill="#5A60CE"/>
<path d="M196.592 135.873H170.609V136.737H196.592V135.873Z" fill="#D0CDE1"/>
<path d="M119.076 170.007H93.0933V170.871H119.076V170.007Z" fill="#D0CDE1"/>
<path d="M206.12 140.194C205.349 140.194 204.595 139.966 203.954 139.538C203.313 139.111 202.814 138.504 202.519 137.793C202.224 137.083 202.147 136.301 202.297 135.546C202.447 134.792 202.819 134.099 203.364 133.555C203.909 133.011 204.603 132.641 205.359 132.491C206.115 132.341 206.899 132.418 207.611 132.712C208.323 133.007 208.932 133.505 209.36 134.145C209.788 134.784 210.017 135.536 210.017 136.305C210.017 137.336 209.606 138.325 208.875 139.055C208.145 139.784 207.153 140.194 206.12 140.194ZM206.12 133.28C205.52 133.28 204.934 133.458 204.435 133.79C203.937 134.122 203.548 134.595 203.319 135.148C203.089 135.7 203.029 136.308 203.146 136.895C203.263 137.482 203.552 138.021 203.976 138.444C204.4 138.867 204.94 139.155 205.528 139.271C206.116 139.388 206.726 139.328 207.28 139.099C207.833 138.87 208.307 138.483 208.64 137.985C208.973 137.488 209.151 136.903 209.151 136.305C209.151 135.503 208.832 134.734 208.263 134.166C207.695 133.599 206.923 133.28 206.12 133.28Z" fill="#D0CDE1"/>
<path d="M206.12 178.649C205.349 178.649 204.595 178.421 203.954 177.993C203.313 177.566 202.814 176.959 202.519 176.248C202.224 175.538 202.147 174.756 202.297 174.001C202.447 173.247 202.819 172.554 203.364 172.01C203.909 171.466 204.603 171.096 205.359 170.946C206.115 170.796 206.899 170.873 207.611 171.167C208.323 171.462 208.932 171.96 209.36 172.599C209.788 173.239 210.017 173.991 210.017 174.76C210.017 175.791 209.606 176.78 208.875 177.51C208.145 178.239 207.153 178.649 206.12 178.649ZM206.12 171.735C205.52 171.735 204.934 171.913 204.435 172.245C203.937 172.577 203.548 173.05 203.319 173.602C203.089 174.155 203.029 174.763 203.146 175.35C203.263 175.937 203.552 176.476 203.976 176.899C204.4 177.322 204.94 177.61 205.528 177.726C206.116 177.843 206.726 177.783 207.28 177.554C207.833 177.325 208.307 176.938 208.64 176.44C208.973 175.943 209.151 175.358 209.151 174.76C209.151 173.958 208.832 173.188 208.263 172.621C207.695 172.054 206.923 171.735 206.12 171.735Z" fill="#D0CDE1"/>
<path d="M219.977 178.649C219.206 178.649 218.453 178.421 217.812 177.993C217.171 177.566 216.671 176.959 216.376 176.248C216.081 175.538 216.004 174.756 216.155 174.001C216.305 173.247 216.676 172.554 217.221 172.01C217.766 171.466 218.461 171.096 219.217 170.946C219.973 170.796 220.757 170.873 221.469 171.167C222.181 171.462 222.79 171.96 223.218 172.599C223.646 173.239 223.875 173.991 223.875 174.76C223.875 175.791 223.464 176.78 222.733 177.51C222.002 178.239 221.011 178.649 219.977 178.649ZM219.977 171.735C219.378 171.735 218.792 171.913 218.293 172.245C217.795 172.577 217.406 173.05 217.177 173.602C216.947 174.155 216.887 174.763 217.004 175.35C217.121 175.937 217.41 176.476 217.834 176.899C218.258 177.322 218.798 177.61 219.386 177.726C219.974 177.843 220.583 177.783 221.137 177.554C221.691 177.325 222.165 176.938 222.498 176.44C222.831 175.943 223.009 175.358 223.009 174.76C223.009 173.958 222.689 173.188 222.121 172.621C221.552 172.054 220.781 171.735 219.977 171.735Z" fill="#D0CDE1"/>
<path d="M192.262 178.649C191.491 178.649 190.738 178.421 190.097 177.993C189.456 177.566 188.956 176.959 188.661 176.248C188.366 175.538 188.289 174.756 188.439 174.001C188.59 173.247 188.961 172.554 189.506 172.01C190.051 171.466 190.746 171.096 191.502 170.946C192.258 170.796 193.041 170.873 193.753 171.167C194.466 171.462 195.074 171.96 195.502 172.599C195.931 173.239 196.159 173.991 196.159 174.76C196.159 175.791 195.749 176.78 195.018 177.51C194.287 178.239 193.296 178.649 192.262 178.649ZM192.262 171.735C191.662 171.735 191.076 171.913 190.578 172.245C190.079 172.577 189.691 173.05 189.461 173.602C189.232 174.155 189.172 174.763 189.289 175.35C189.406 175.937 189.694 176.476 190.118 176.899C190.542 177.322 191.082 177.61 191.67 177.726C192.259 177.843 192.868 177.783 193.422 177.554C193.976 177.325 194.449 176.938 194.782 176.44C195.115 175.943 195.293 175.358 195.293 174.76C195.293 173.958 194.974 173.188 194.405 172.621C193.837 172.054 193.066 171.735 192.262 171.735Z" fill="#D0CDE1"/>
<path d="M82.2671 174.328C81.4962 174.328 80.7427 174.1 80.1018 173.672C79.4608 173.245 78.9613 172.638 78.6663 171.927C78.3713 171.217 78.2941 170.435 78.4445 169.68C78.5949 168.926 78.9661 168.233 79.5112 167.689C80.0562 167.146 80.7507 166.775 81.5067 166.625C82.2628 166.475 83.0464 166.552 83.7586 166.846C84.4707 167.141 85.0794 167.639 85.5077 168.279C85.936 168.918 86.1645 169.67 86.1645 170.439C86.1645 171.47 85.7539 172.46 85.023 173.189C84.2921 173.918 83.3007 174.328 82.2671 174.328ZM82.2671 167.415C81.6675 167.415 81.0815 167.592 80.583 167.924C80.0845 168.257 79.6959 168.729 79.4665 169.282C79.237 169.834 79.177 170.442 79.294 171.029C79.4109 171.616 79.6996 172.155 80.1236 172.578C80.5475 173.001 81.0877 173.289 81.6757 173.406C82.2637 173.522 82.8732 173.462 83.4271 173.233C83.981 173.005 84.4545 172.617 84.7876 172.119C85.1206 171.622 85.2984 171.037 85.2984 170.439C85.2975 169.637 84.9778 168.868 84.4095 168.301C83.8412 167.734 83.0708 167.416 82.2671 167.415Z" fill="#D0CDE1"/>
<path d="M68.4094 174.328C67.6386 174.328 66.885 174.1 66.2441 173.672C65.6032 173.245 65.1036 172.638 64.8086 171.927C64.5137 171.217 64.4365 170.435 64.5869 169.68C64.7372 168.926 65.1084 168.233 65.6535 167.689C66.1986 167.146 66.893 166.775 67.6491 166.625C68.4051 166.475 69.1887 166.552 69.9009 166.846C70.6131 167.141 71.2218 167.639 71.65 168.279C72.0783 168.918 72.3069 169.67 72.3069 170.439C72.3069 171.47 71.8962 172.46 71.1653 173.189C70.4344 173.918 69.4431 174.328 68.4094 174.328ZM68.4094 167.415C67.8099 167.415 67.2238 167.592 66.7253 167.924C66.2268 168.257 65.8382 168.729 65.6088 169.282C65.3794 169.834 65.3193 170.442 65.4363 171.029C65.5533 171.616 65.842 172.155 66.2659 172.578C66.6899 173.001 67.23 173.289 67.818 173.406C68.4061 173.522 69.0156 173.462 69.5695 173.233C70.1234 173.005 70.5968 172.617 70.9299 172.119C71.263 171.622 71.4408 171.037 71.4408 170.439C71.4398 169.637 71.1202 168.868 70.5519 168.301C69.9836 167.734 69.2131 167.416 68.4094 167.415Z" fill="#D0CDE1"/>
<path d="M206.553 143.65H205.686V165.254H206.553V143.65Z" fill="#D0CDE1"/>
<path d="M346 148.442C346 148.442 338.836 147.421 335.254 160.697C331.672 173.972 330.648 174.993 330.648 174.993C330.648 174.993 351.63 178.057 352.141 177.036C352.653 176.015 356.747 151.506 346 148.442Z" fill="#2F2E41"/>
<path d="M341.906 143.336C349.537 143.336 355.723 137.164 355.723 129.55C355.723 121.937 349.537 115.764 341.906 115.764C334.275 115.764 328.089 121.937 328.089 129.55C328.089 137.164 334.275 143.336 341.906 143.336Z" fill="#FFB8B8"/>
<path d="M335.766 140.784C335.766 140.784 340.371 152.527 338.836 154.059C337.301 155.591 357.77 157.633 357.77 157.633C357.77 157.633 359.306 149.974 353.165 145.379C353.165 145.379 350.606 137.72 351.118 136.188C351.629 134.656 335.766 140.784 335.766 140.784Z" fill="#FFB8B8"/>
<path d="M348.047 145.89C342.802 147.866 338.076 151.009 334.23 155.08C328.089 161.718 325.019 163.76 325.019 163.76C325.019 163.76 317.855 166.313 320.413 178.568C321.693 184.695 320.797 191.588 319.582 196.949C317.725 205.269 316.803 213.769 316.831 222.293V227.585C316.831 227.585 269.751 326.129 285.615 332.767C301.479 339.405 315.808 341.447 316.831 339.915C317.855 338.384 336.277 258.731 336.277 258.731C336.277 258.731 341.395 344 354.188 344C366.982 344 387.963 340.426 387.963 340.426L361.864 238.307C361.864 238.307 368.005 220.947 352.653 208.693L350.606 203.076C359.096 203.08 362.977 149.468 354.188 144.868C354.188 144.868 352.141 143.337 348.047 145.89Z" fill="#2F2E41"/>
<path d="M335.254 173.462L328.089 192.354L311.202 227.585C311.202 227.585 303.526 250.561 309.667 250.561C315.808 250.561 320.413 228.606 320.413 228.606L339.348 198.991L350.094 172.44L335.254 173.462Z" fill="#FFB8B8"/>
<path d="M301.223 344C306.169 344 310.178 341.714 310.178 338.894C310.178 336.074 306.169 333.788 301.223 333.788C296.277 333.788 292.267 336.074 292.267 338.894C292.267 341.714 296.277 344 301.223 344Z" fill="#2F2E41"/>
<path d="M369.796 344C374.742 344 378.752 341.714 378.752 338.894C378.752 336.074 374.742 333.788 369.796 333.788C364.85 333.788 360.841 336.074 360.841 338.894C360.841 341.714 364.85 344 369.796 344Z" fill="#2F2E41"/>
<path d="M347.24 110.218H347.24C346.529 110.219 345.819 110.29 345.122 110.428C343.861 109.818 342.478 109.5 341.077 109.498H340.71C333.632 109.498 327.894 115.889 327.894 123.772V123.772H330.265L330.648 120.863L331.21 123.772H333.186C332.571 126.106 332.263 128.51 332.268 130.923V145.451H335.854L337.93 140.068L337.411 145.451H360.459L362.346 140.558L361.875 145.451H364.47V134.044C364.47 120.885 356.756 110.218 347.24 110.218Z" fill="#2F2E41"/>
<path d="M342.159 107.033H345.541C346.241 107.033 346.913 107.31 347.408 107.804C347.902 108.298 348.181 108.967 348.181 109.666V125.139C348.181 125.837 347.902 126.507 347.408 127.001C346.913 127.495 346.241 127.772 345.541 127.772H342.159C341.812 127.772 341.469 127.704 341.149 127.572C340.829 127.44 340.538 127.246 340.293 127.001C340.047 126.757 339.853 126.466 339.72 126.147C339.588 125.827 339.52 125.485 339.52 125.139V109.666C339.52 108.967 339.798 108.298 340.293 107.804C340.787 107.31 341.459 107.033 342.159 107.033Z" fill="#D0CDE1"/>
<path d="M343.85 139.439C348.155 139.439 351.645 135.956 351.645 131.661C351.645 127.366 348.155 123.884 343.85 123.884C339.545 123.884 336.055 127.366 336.055 131.661C336.055 135.956 339.545 139.439 343.85 139.439Z" fill="#5A60CE"/>
<path d="M343.85 135.55C346.003 135.55 347.748 133.809 347.748 131.661C347.748 129.513 346.003 127.772 343.85 127.772C341.698 127.772 339.953 129.513 339.953 131.661C339.953 133.809 341.698 135.55 343.85 135.55Z" fill="#D0CDE1"/>
<path d="M343.85 133.389C344.807 133.389 345.582 132.616 345.582 131.661C345.582 130.707 344.807 129.933 343.85 129.933C342.893 129.933 342.118 130.707 342.118 131.661C342.118 132.616 342.893 133.389 343.85 133.389Z" fill="#5A60CE"/>
</g>
<defs>
<clipPath id="clip0">
<rect width="440" height="254" fill="white" transform="translate(16 90)"/>
</clipPath>
</defs>
</svg>
