<svg width="399" height="330" viewBox="0 0 399 330" fill="none" xmlns="http://www.w3.org/2000/svg">
<circle cx="150.5" cy="150.5" r="150.5" fill="#F8F8F8"/>
<path d="M210.657 330C300.49 330 373.314 327.599 373.314 324.636C373.314 321.674 300.49 319.272 210.657 319.272C120.824 319.272 48 321.674 48 324.636C48 327.599 120.824 330 210.657 330Z" fill="#D0CDE1"/>
<path d="M208.215 145.194C219.275 145.194 228.241 136.243 228.241 125.202C228.241 114.16 219.275 105.209 208.215 105.209C197.154 105.209 188.188 114.16 188.188 125.202C188.188 136.243 197.154 145.194 208.215 145.194Z" fill="#5A60CE"/>
<path d="M202.917 171.427L193.855 164.504L161.412 223.165C160.393 223.35 159.451 223.83 158.704 224.545C157.956 225.261 157.436 226.18 157.209 227.189C156.981 228.197 157.056 229.25 157.423 230.217C157.791 231.183 158.436 232.02 159.277 232.623C160.118 233.227 161.118 233.57 162.153 233.609C163.187 233.649 164.211 233.384 165.096 232.847C165.981 232.31 166.688 231.525 167.129 230.589C167.57 229.654 167.725 228.609 167.576 227.586L202.917 171.427Z" fill="#FFB8B8"/>
<path d="M285.635 204.722C285.265 203.651 284.559 202.729 283.622 202.09C282.685 201.452 281.567 201.132 280.434 201.177L228.161 160.244L220.32 168.521L275.387 206.837C275.443 207.584 275.658 208.31 276.018 208.967C276.377 209.624 276.873 210.198 277.472 210.649C278.071 211.099 278.76 211.418 279.492 211.582C280.224 211.746 280.982 211.753 281.717 211.601C282.452 211.449 283.145 211.143 283.752 210.703C284.359 210.262 284.864 209.697 285.235 209.046C285.606 208.395 285.834 207.673 285.903 206.927C285.972 206.181 285.88 205.43 285.635 204.722V204.722Z" fill="#FFB8B8"/>
<path d="M224.969 318.89H231.127L234.058 295.178H224.969V318.89Z" fill="#FFB8B8"/>
<path d="M243.004 324.598H223.649V317.133H235.526C237.509 317.133 239.411 317.92 240.813 319.32C242.216 320.72 243.004 322.619 243.004 324.598V324.598Z" fill="#2F2E41"/>
<path d="M176.172 313.401L181.83 315.829L193.902 295.198L185.551 291.616L176.172 313.401Z" fill="#FFB8B8"/>
<path d="M190.484 325.755L172.702 318.126L175.654 311.268L186.566 315.949C188.388 316.731 189.825 318.203 190.559 320.042C191.294 321.881 191.267 323.936 190.484 325.755Z" fill="#2F2E41"/>
<path d="M195.367 205.195L166.072 297.322L204.522 301.434L208.215 247.593L213.219 301.434L244.345 297.779C244.345 297.779 238.722 212.506 228.488 207.022C218.254 201.539 195.367 205.195 195.367 205.195Z" fill="#2F2E41"/>
<path d="M211.251 150.013C218.33 150.013 224.068 144.285 224.068 137.219C224.068 130.153 218.33 124.424 211.251 124.424C204.173 124.424 198.435 130.153 198.435 137.219C198.435 144.285 204.173 150.013 211.251 150.013Z" fill="#FFB8B8"/>
<path d="M210.841 209.324C201.941 209.324 193.377 208.93 192.935 208.167C192.898 208.103 192.884 208.028 192.895 207.954C192.907 207.881 192.943 207.814 192.998 207.764C193.61 206.864 192.173 192.235 189.146 168.639C188.803 165.876 189.415 163.079 190.882 160.71C192.348 158.342 194.58 156.544 197.21 155.615L197.266 155.602L224.089 152.958L224.39 153.042C227.043 153.778 229.367 155.394 230.978 157.623C232.59 159.852 233.395 162.563 233.259 165.308C232.568 180.36 231.407 205.854 231.407 207.479C231.407 207.921 230.79 208.143 230.253 208.287C227.642 208.985 219.097 209.324 210.841 209.324Z" fill="#2F2E41"/>
<path d="M102.537 102.967L72.6286 140.278L110.004 170.135L139.913 132.824L102.537 102.967Z" fill="#FFA451"/>
<path d="M109.744 178.512C107.643 178.192 105.684 177.257 104.115 175.826C102.546 174.395 101.438 172.532 100.929 170.471C100.421 168.411 100.536 166.247 101.261 164.252C101.985 162.257 103.285 160.522 104.997 159.265C106.709 158.008 108.756 157.286 110.88 157.19C113.003 157.094 115.107 157.629 116.925 158.728C118.744 159.826 120.196 161.437 121.097 163.359C121.998 165.281 122.308 167.426 121.987 169.523C121.775 170.916 121.289 172.253 120.559 173.459C119.828 174.664 118.867 175.714 117.731 176.549C116.594 177.383 115.303 177.986 113.933 178.323C112.563 178.66 111.139 178.724 109.744 178.512ZM112.836 158.266C110.926 157.975 108.972 158.256 107.222 159.074C105.472 159.892 104.005 161.209 103.005 162.859C102.005 164.51 101.518 166.419 101.605 168.346C101.692 170.273 102.349 172.131 103.494 173.685C104.639 175.238 106.219 176.419 108.036 177.076C109.852 177.733 111.823 177.837 113.7 177.376C115.576 176.915 117.273 175.909 118.576 174.485C119.879 173.061 120.73 171.283 121.021 169.376C121.409 166.82 120.765 164.214 119.23 162.131C117.696 160.048 115.396 158.658 112.836 158.266Z" fill="#3F3D56"/>
<path d="M86.8704 299.468C83.2022 311.701 88.8953 324.207 88.8953 324.207C88.8953 324.207 100.536 316.881 104.204 304.649C107.872 292.416 102.179 279.91 102.179 279.91C102.179 279.91 90.5387 287.236 86.8704 299.468Z" fill="#D0CDE1"/>
<path d="M92.44 299.799C95.5274 312.191 89.2508 324.416 89.2508 324.416C89.2508 324.416 77.9686 316.55 74.8813 304.159C71.7939 291.768 78.0705 279.543 78.0705 279.543C78.0705 279.543 89.3527 287.408 92.44 299.799Z" fill="#D0CDE1"/>
<path d="M193.227 128.745C200.043 132.449 207.715 134.299 215.473 134.11C218.444 134.033 221.718 133.494 223.6 131.197C225.724 128.605 225.192 124.555 223.144 121.904C221.096 119.253 217.891 117.758 214.695 116.744C211.67 115.785 208.429 115.167 205.328 115.838C203.691 116.192 202.15 116.893 200.809 117.895C199.468 118.896 198.358 120.175 197.557 121.642C196.755 123.11 196.279 124.733 196.161 126.401C196.044 128.068 196.287 129.742 196.875 131.307" fill="#5A60CE"/>
<path d="M194.049 122.276C200.254 122.276 205.284 117.255 205.284 111.061C205.284 104.867 200.254 99.8457 194.049 99.8457C187.845 99.8457 182.815 104.867 182.815 111.061C182.815 117.255 187.845 122.276 194.049 122.276Z" fill="#5A60CE"/>
<path d="M397.059 112.304L352.959 86.6456L358.616 76.9561C358.778 76.6795 358.883 76.3738 358.926 76.0566C358.969 75.7393 358.95 75.4167 358.868 75.1071C358.786 74.7975 358.644 74.507 358.45 74.2522C358.256 73.9974 358.013 73.7832 357.736 73.622C357.459 73.4608 357.153 73.3556 356.835 73.3125C356.517 73.2694 356.194 73.2892 355.884 73.3708C355.574 73.4524 355.283 73.5942 355.027 73.788C354.772 73.9819 354.558 74.2241 354.396 74.5007L348.739 84.1901L304.639 58.5313C303.743 58.0103 302.677 57.8658 301.675 58.1294C300.673 58.3931 299.817 59.0434 299.295 59.9372L264.86 118.917C264.338 119.811 264.193 120.875 264.458 121.875C264.722 122.876 265.373 123.73 266.268 124.251L310.369 149.91L271.752 216.052C271.591 216.328 271.485 216.634 271.442 216.951C271.399 217.269 271.419 217.591 271.5 217.901C271.582 218.211 271.724 218.501 271.918 218.756C272.113 219.011 272.355 219.225 272.632 219.386C272.909 219.548 273.216 219.653 273.534 219.696C273.851 219.739 274.175 219.719 274.485 219.637C274.795 219.556 275.086 219.414 275.341 219.22C275.597 219.026 275.811 218.784 275.973 218.507L314.589 152.365L358.689 178.024C359.132 178.282 359.622 178.451 360.131 178.52C360.639 178.589 361.156 178.557 361.653 178.426C362.149 178.296 362.614 178.069 363.023 177.759C363.431 177.448 363.774 177.061 364.033 176.618L398.468 117.639C398.726 117.196 398.895 116.707 398.964 116.2C399.033 115.692 399.001 115.176 398.87 114.68C398.74 114.185 398.512 113.72 398.202 113.313C397.891 112.905 397.503 112.562 397.059 112.304Z" fill="#D0CDE1"/>
<path opacity="0.1" d="M335.894 147.83C337.253 145.503 331.174 139.44 322.317 134.287C313.461 129.134 305.18 126.842 303.821 129.169C302.463 131.496 308.541 137.559 317.398 142.712C326.255 147.865 334.536 150.157 335.894 147.83Z" fill="black"/>
<path d="M331.664 141.683C344.613 141.683 355.11 131.204 355.11 118.278C355.11 105.351 344.613 94.8723 331.664 94.8723C318.715 94.8723 308.218 105.351 308.218 118.278C308.218 131.204 318.715 141.683 331.664 141.683Z" fill="#5A60CE"/>
<path d="M341.865 129.857C340.506 132.184 330.925 133.651 323.933 129.583C316.941 125.515 315.185 117.451 316.544 115.125C317.902 112.798 321.86 117.089 328.852 121.157C335.844 125.225 343.223 127.53 341.865 129.857Z" fill="#F2F2F2"/>
<path d="M326.561 110.59C329.259 110.59 331.446 108.407 331.446 105.714C331.446 103.021 329.259 100.838 326.561 100.838C323.863 100.838 321.676 103.021 321.676 105.714C321.676 108.407 323.863 110.59 326.561 110.59Z" fill="#F2F2F2"/>
<path d="M344.286 120.903C346.983 120.903 349.17 118.72 349.17 116.027C349.17 113.334 346.983 111.151 344.286 111.151C341.588 111.151 339.401 113.334 339.401 116.027C339.401 118.72 341.588 120.903 344.286 120.903Z" fill="#F2F2F2"/>
</svg>
