<svg width="378" height="319" viewBox="0 0 378 319" fill="none" xmlns="http://www.w3.org/2000/svg">
<circle cx="187.935" cy="133.731" r="133.731" fill="#C4C4C4" fill-opacity="0.12"/>
<g clip-path="url(#clip0)">
<path d="M174.153 95.3146H80.9922C80.5348 95.314 80.0963 95.1326 79.7729 94.8101C79.4494 94.4875 79.2675 94.0502 79.267 93.5941V70.5485C79.2675 70.0923 79.4494 69.655 79.7729 69.3325C80.0963 69.01 80.5348 68.8285 80.9922 68.828H174.153C174.61 68.8285 175.049 69.01 175.372 69.3325C175.696 69.655 175.877 70.0923 175.878 70.5485V93.5941C175.877 94.0502 175.696 94.4875 175.372 94.8101C175.049 95.1326 174.61 95.314 174.153 95.3146V95.3146ZM80.9922 69.5162C80.7177 69.5165 80.4546 69.6253 80.2606 69.8188C80.0665 70.0124 79.9573 70.2748 79.957 70.5484V93.5941C79.9573 93.8678 80.0665 94.1302 80.2606 94.3237C80.4546 94.5172 80.7177 94.6261 80.9922 94.6264H174.153C174.427 94.6261 174.69 94.5172 174.884 94.3237C175.078 94.1302 175.188 93.8678 175.188 93.5941V70.5485C175.188 70.2748 175.078 70.0124 174.884 69.8189C174.69 69.6253 174.427 69.5165 174.153 69.5162L80.9922 69.5162Z" fill="#3F3D56"/>
<path d="M95.4675 88.1953C99.3487 88.1953 102.495 85.0576 102.495 81.187C102.495 77.3165 99.3487 74.1788 95.4675 74.1788C91.5863 74.1788 88.4399 77.3165 88.4399 81.187C88.4399 85.0576 91.5863 88.1953 95.4675 88.1953Z" fill="#5A60CE"/>
<path d="M111.698 76.5149C111.387 76.5149 111.089 76.638 110.869 76.857C110.65 77.0761 110.526 77.3731 110.526 77.6829C110.526 77.9927 110.65 78.2898 110.869 78.5089C111.089 78.7279 111.387 78.851 111.698 78.851H166.914C167.225 78.851 167.522 78.7279 167.742 78.5089C167.962 78.2898 168.085 77.9927 168.085 77.6829C168.085 77.3731 167.962 77.0761 167.742 76.857C167.522 76.638 167.225 76.5149 166.914 76.5149H111.698Z" fill="#E6E6E6"/>
<path d="M111.698 83.5232C111.387 83.5232 111.089 83.6463 110.869 83.8653C110.65 84.0844 110.526 84.3815 110.526 84.6912C110.526 85.001 110.65 85.2981 110.869 85.5172C111.089 85.7362 111.387 85.8593 111.698 85.8593H135.457C135.611 85.8596 135.764 85.8296 135.906 85.771C136.049 85.7124 136.178 85.6264 136.287 85.5179C136.396 85.4094 136.482 85.2806 136.541 85.1387C136.6 84.9969 136.631 84.8448 136.631 84.6912C136.631 84.5377 136.6 84.3856 136.541 84.2438C136.482 84.1019 136.396 83.973 136.287 83.8646C136.178 83.7561 136.049 83.6701 135.906 83.6115C135.764 83.5529 135.611 83.5229 135.457 83.5232H111.698Z" fill="#E6E6E6"/>
<path d="M133.708 177.462H92.3033C91.8459 177.461 91.4074 177.28 91.084 176.957C90.7606 176.635 90.5787 176.198 90.5781 175.741V132.739C90.5787 132.282 90.7606 131.845 91.084 131.523C91.4074 131.2 91.8459 131.019 92.3033 131.018H133.708C134.166 131.019 134.604 131.2 134.927 131.523C135.251 131.845 135.433 132.282 135.433 132.739V175.741C135.433 176.198 135.251 176.635 134.927 176.957C134.604 177.28 134.166 177.461 133.708 177.462ZM92.3033 131.706C92.0289 131.707 91.7658 131.815 91.5717 132.009C91.3777 132.202 91.2685 132.465 91.2682 132.739V175.741C91.2685 176.015 91.3777 176.277 91.5717 176.471C91.7658 176.665 92.0289 176.773 92.3033 176.774H133.708C133.983 176.773 134.246 176.665 134.44 176.471C134.634 176.277 134.743 176.015 134.743 175.741V132.739C134.743 132.465 134.634 132.202 134.44 132.009C134.246 131.815 133.983 131.707 133.708 131.706H92.3033Z" fill="#3F3D56"/>
<path d="M101.126 139.886C100.815 139.886 100.517 140.009 100.298 140.228C100.078 140.447 99.9546 140.744 99.9546 141.054C99.9546 141.364 100.078 141.661 100.298 141.88C100.517 142.099 100.815 142.222 101.126 142.222H124.886C125.196 142.222 125.494 142.099 125.714 141.88C125.933 141.661 126.057 141.364 126.057 141.054C126.057 140.744 125.933 140.447 125.714 140.228C125.494 140.009 125.196 139.886 124.886 139.886H101.126Z" fill="#E6E6E6"/>
<path d="M101.126 146.768C100.972 146.767 100.819 146.797 100.677 146.856C100.535 146.915 100.405 147.001 100.296 147.109C100.187 147.218 100.101 147.346 100.042 147.488C99.9828 147.63 99.9524 147.782 99.9524 147.936C99.9524 148.089 99.9828 148.241 100.042 148.383C100.101 148.525 100.187 148.654 100.296 148.762C100.405 148.871 100.535 148.957 100.677 149.015C100.819 149.074 100.972 149.104 101.126 149.104H124.886C125.196 149.104 125.494 148.981 125.714 148.762C125.933 148.543 126.057 148.246 126.057 147.936C126.057 147.626 125.933 147.329 125.714 147.11C125.494 146.891 125.196 146.768 124.886 146.768H101.126Z" fill="#E6E6E6"/>
<path d="M113.006 168.594C111.548 168.594 110.122 168.163 108.91 167.355C107.697 166.547 106.753 165.399 106.194 164.055C105.636 162.712 105.49 161.233 105.775 159.807C106.059 158.381 106.762 157.071 107.793 156.043C108.824 155.014 110.137 154.314 111.568 154.031C112.998 153.747 114.48 153.892 115.827 154.449C117.174 155.005 118.326 155.948 119.136 157.157C119.946 158.366 120.378 159.787 120.378 161.242C120.376 163.191 119.599 165.06 118.216 166.438C116.834 167.816 114.96 168.592 113.006 168.594V168.594Z" fill="#FF9529"/>
<path d="M201.536 34.6545H242.941C243.398 34.6551 243.837 34.8365 244.16 35.159C244.484 35.4816 244.665 35.9189 244.666 36.375V79.3779C244.665 79.834 244.484 80.2713 244.16 80.5939C243.837 80.9164 243.398 81.0978 242.941 81.0984H201.536C201.079 81.0978 200.64 80.9164 200.317 80.5939C199.993 80.2713 199.811 79.834 199.811 79.3779V36.375C199.811 35.9189 199.993 35.4816 200.317 35.159C200.64 34.8365 201.079 34.6551 201.536 34.6545V34.6545ZM242.941 80.4102C243.215 80.4099 243.478 80.301 243.672 80.1075C243.866 79.914 243.976 79.6516 243.976 79.3779V36.375C243.976 36.1013 243.866 35.8389 243.672 35.6454C243.478 35.4519 243.215 35.343 242.941 35.3427H201.536C201.262 35.343 200.998 35.4519 200.804 35.6454C200.61 35.8389 200.501 36.1013 200.501 36.375V79.3779C200.501 79.6516 200.61 79.914 200.804 80.1075C200.998 80.301 201.262 80.4099 201.536 80.4102H242.941Z" fill="#3F3D56"/>
<path d="M234.118 72.2304C234.429 72.2304 234.727 72.1073 234.946 71.8882C235.166 71.6692 235.289 71.3721 235.289 71.0623C235.289 70.7525 235.166 70.4554 234.946 70.2364C234.727 70.0173 234.429 69.8943 234.118 69.8943H210.359C210.048 69.8943 209.75 70.0173 209.53 70.2364C209.311 70.4554 209.187 70.7525 209.187 71.0623C209.187 71.3721 209.311 71.6692 209.53 71.8882C209.75 72.1073 210.048 72.2304 210.359 72.2304H234.118Z" fill="#E6E6E6"/>
<path d="M234.118 65.3485C234.429 65.3485 234.727 65.2255 234.946 65.0064C235.166 64.7874 235.289 64.4903 235.289 64.1805C235.289 63.8707 235.166 63.5736 234.946 63.3546C234.727 63.1355 234.429 63.0125 234.118 63.0125H210.359C210.048 63.0125 209.75 63.1355 209.53 63.3546C209.311 63.5736 209.187 63.8707 209.187 64.1805C209.187 64.4903 209.311 64.7874 209.53 65.0064C209.75 65.2255 210.048 65.3485 210.359 65.3485H234.118Z" fill="#E6E6E6"/>
<path d="M222.238 43.5225C223.696 43.5225 225.122 43.9537 226.334 44.7615C227.547 45.5694 228.492 46.7177 229.05 48.0611C229.608 49.4046 229.754 50.8829 229.469 52.3091C229.185 53.7353 228.482 55.0453 227.451 56.0735C226.42 57.1018 225.107 57.802 223.677 58.0857C222.246 58.3694 220.764 58.2238 219.417 57.6673C218.07 57.1108 216.918 56.1685 216.108 54.9594C215.298 53.7503 214.866 52.3288 214.866 50.8747C214.868 48.9254 215.645 47.0567 217.028 45.6783C218.41 44.3 220.284 43.5247 222.238 43.5225Z" fill="#5A60CE"/>
<path d="M79.7991 123.621C87.126 117.962 95.6861 114.103 104.787 112.356C113.959 110.613 123.418 111.098 132.363 113.769C136.86 115.105 141.18 116.972 145.232 119.33C149.361 121.737 153.092 124.7 156.681 127.837C160.317 131.015 163.834 134.335 167.63 137.327C178.467 145.965 191.92 150.685 205.794 150.715C206.94 150.717 208.085 150.685 209.23 150.621C209.85 150.587 209.854 149.62 209.23 149.654C195.088 150.43 181.123 146.222 169.779 137.765C165.844 134.832 162.252 131.477 158.585 128.226C155.029 125.075 151.379 122.009 147.345 119.477C137.478 113.279 126 110.114 114.341 110.379C102.683 110.644 91.3609 114.327 81.7877 120.968C80.8775 121.599 79.9884 122.258 79.1135 122.937C78.6217 123.319 79.3123 123.999 79.7991 123.621V123.621Z" fill="#3F3D56"/>
<path d="M79.2843 128.294C82.067 128.294 84.3228 126.045 84.3228 123.27C84.3228 120.495 82.067 118.245 79.2843 118.245C76.5016 118.245 74.2458 120.495 74.2458 123.27C74.2458 126.045 76.5016 128.294 79.2843 128.294Z" fill="#3F3D56"/>
<path d="M266.725 195.008C269.508 195.008 271.764 192.758 271.764 189.983C271.764 187.208 269.508 184.958 266.725 184.958C263.943 184.958 261.687 187.208 261.687 189.983C261.687 192.758 263.943 195.008 266.725 195.008Z" fill="#3F3D56"/>
<path d="M293.12 161.36H210.908C210.451 161.36 210.012 161.178 209.689 160.856C209.365 160.533 209.183 160.096 209.183 159.64V116.981C209.183 116.525 209.365 116.088 209.689 115.765C210.012 115.443 210.451 115.261 210.908 115.261H293.12C293.578 115.261 294.016 115.443 294.34 115.765C294.663 116.088 294.845 116.525 294.846 116.981V159.64C294.845 160.096 294.663 160.533 294.34 160.856C294.016 161.178 293.578 161.36 293.12 161.36ZM210.908 115.949C210.634 115.949 210.371 116.058 210.176 116.251C209.982 116.445 209.873 116.707 209.873 116.981V159.64C209.873 159.914 209.982 160.176 210.176 160.369C210.371 160.563 210.634 160.672 210.908 160.672H293.12C293.395 160.672 293.658 160.563 293.852 160.369C294.046 160.176 294.155 159.914 294.156 159.64V116.981C294.155 116.707 294.046 116.445 293.852 116.251C293.658 116.058 293.395 115.949 293.12 115.949H210.908Z" fill="#3F3D56"/>
<path d="M224.693 137.381C228.574 137.381 231.721 134.243 231.721 130.372C231.721 126.502 228.574 123.364 224.693 123.364C220.812 123.364 217.666 126.502 217.666 130.372C217.666 134.243 220.812 137.381 224.693 137.381Z" fill="#FF9529"/>
<path d="M240.923 125.7C240.769 125.7 240.617 125.73 240.475 125.788C240.332 125.847 240.203 125.933 240.094 126.041C239.985 126.15 239.898 126.279 239.839 126.421C239.78 126.562 239.75 126.715 239.75 126.868C239.75 127.022 239.78 127.174 239.839 127.316C239.898 127.457 239.985 127.586 240.094 127.695C240.203 127.803 240.332 127.889 240.475 127.948C240.617 128.006 240.769 128.036 240.923 128.036H285.191C285.502 128.036 285.8 127.913 286.02 127.694C286.239 127.475 286.363 127.178 286.363 126.868C286.363 126.558 286.239 126.261 286.02 126.042C285.8 125.823 285.502 125.7 285.191 125.7H240.923Z" fill="#E6E6E6"/>
<path d="M240.923 132.708C240.769 132.708 240.617 132.738 240.475 132.797C240.332 132.855 240.203 132.941 240.094 133.05C239.985 133.158 239.898 133.287 239.839 133.429C239.78 133.571 239.75 133.723 239.75 133.876C239.75 134.03 239.78 134.182 239.839 134.324C239.898 134.466 239.985 134.594 240.094 134.703C240.203 134.811 240.332 134.897 240.475 134.956C240.617 135.015 240.769 135.045 240.923 135.044H264.683C264.994 135.044 265.292 134.921 265.511 134.702C265.731 134.483 265.854 134.186 265.854 133.876C265.854 133.566 265.731 133.269 265.511 133.05C265.292 132.831 264.994 132.708 264.683 132.708H240.923Z" fill="#E6E6E6"/>
<path d="M219.303 143.913C218.412 143.913 217.687 144.437 217.687 145.081C217.687 145.725 218.412 146.249 219.303 146.249H284.536C285.427 146.249 286.152 145.725 286.152 145.081C286.152 144.437 285.427 143.913 284.536 143.913H219.303Z" fill="#E6E6E6"/>
<path d="M219.303 150.92C218.412 150.92 217.687 151.444 217.687 152.088C217.687 152.732 218.412 153.256 219.303 153.256H284.536C285.427 153.256 286.152 152.732 286.152 152.088C286.152 151.444 285.427 150.92 284.536 150.92H219.303Z" fill="#E6E6E6"/>
<path d="M204.299 194.661C208.938 192.654 214.116 194.404 218.488 196.253C220.739 197.205 222.966 198.222 225.296 198.974C227.257 199.605 229.264 200.08 231.3 200.393C235.385 201.017 239.539 201.042 243.632 200.468C247.745 199.896 251.754 198.734 255.533 197.017C259.292 195.318 262.765 193.053 265.833 190.301C266.224 189.95 266.606 189.59 266.981 189.222C267.428 188.786 266.742 188.103 266.296 188.539C263.342 191.411 259.95 193.798 256.248 195.612C252.56 197.421 248.627 198.681 244.574 199.353C240.507 200.036 236.36 200.108 232.272 199.564C230.232 199.289 228.218 198.853 226.248 198.259C223.986 197.525 221.766 196.665 219.6 195.684C215.188 193.794 210.285 191.943 205.437 193.247C204.881 193.4 204.337 193.594 203.81 193.826C203.239 194.073 203.732 194.906 204.299 194.661V194.661Z" fill="#3F3D56"/>
<path d="M202.508 206.519H163.666L172.807 190.73C172.971 190.447 173.206 190.212 173.49 190.049C173.774 189.885 174.096 189.799 174.423 189.799C174.751 189.799 175.073 189.885 175.357 190.049C175.641 190.212 175.876 190.447 176.04 190.73L179.945 197.475L186.584 186.007C186.789 185.652 187.084 185.358 187.44 185.153C187.795 184.949 188.198 184.841 188.608 184.841C189.018 184.841 189.421 184.949 189.777 185.153C190.132 185.358 190.427 185.652 190.632 186.007L202.508 206.519Z" fill="#5A60CE"/>
<path d="M202.544 206.515H161.139C160.682 206.514 160.243 206.333 159.92 206.01C159.597 205.688 159.415 205.251 159.414 204.795V181.749C159.415 181.293 159.597 180.855 159.92 180.533C160.243 180.21 160.682 180.029 161.139 180.028H202.544C203.001 180.029 203.44 180.21 203.763 180.533C204.087 180.855 204.269 181.293 204.269 181.749V204.795C204.269 205.251 204.087 205.688 203.763 206.01C203.44 206.333 203.001 206.514 202.544 206.515ZM161.139 180.717C160.865 180.717 160.602 180.826 160.408 181.019C160.214 181.213 160.104 181.475 160.104 181.749V204.795C160.104 205.068 160.214 205.331 160.408 205.524C160.602 205.718 160.865 205.827 161.139 205.827H202.544C202.819 205.827 203.082 205.718 203.276 205.524C203.47 205.331 203.579 205.068 203.579 204.795V181.749C203.579 181.475 203.47 181.213 203.276 181.019C203.082 180.826 202.819 180.717 202.544 180.717H161.139Z" fill="#3F3D56"/>
<path d="M283.754 186.232L276.374 189.97C273.74 191.304 271.198 191.076 270.224 188.294C269.992 187.632 269.907 186.928 269.973 186.23C270.04 185.532 270.257 184.857 270.609 184.25C270.962 183.643 271.441 183.12 272.016 182.715C272.59 182.311 273.245 182.035 273.936 181.906L280.95 180.6L310.991 170.661L329.189 157.793L335.86 168.391L314.833 179.706L283.754 186.232Z" fill="#FFB8B8"/>
<path d="M318.206 310.288L312.559 309.35L313.187 298.713H319.147L318.206 310.288Z" fill="#FFB8B8"/>
<path d="M373.01 299.899L367.545 301.599L363.298 291.823L368.619 289.144L373.01 299.899Z" fill="#FFB8B8"/>
<path d="M369.967 290.579L363.065 293.395L330.127 250.223L319.775 300.903L312.873 299.651C308.446 255.958 304.836 211.392 309.266 190.314L334.832 189.219L346.439 226.134L352.086 251.161L369.967 290.579Z" fill="#2F2E41"/>
<path d="M317.895 318.89C316.863 319.111 315.787 318.997 314.824 318.565L311.469 317.06C308.657 316.916 306.742 317.474 305.176 315.436C304.734 314.854 304.456 314.164 304.372 313.438C304.288 312.713 304.4 311.978 304.697 311.31V311.31C304.991 310.64 305.458 310.06 306.051 309.63C306.644 309.199 307.342 308.934 308.071 308.861L312.679 305.966L312.92 308.137C315.026 309.326 317.526 308.812 320.175 307.654L321.621 312.701C321.808 313.352 321.858 314.034 321.769 314.705C321.681 315.376 321.455 316.022 321.105 316.602C320.756 317.183 320.291 317.685 319.738 318.079C319.186 318.472 318.559 318.749 317.895 318.89Z" fill="#2F2E41"/>
<path d="M375.246 308.537C374.341 309.08 373.286 309.321 372.235 309.224L368.572 308.886C365.865 309.661 364.236 310.809 362.091 309.389C361.484 308.981 360.997 308.419 360.681 307.76C360.365 307.101 360.231 306.369 360.294 305.642C360.354 304.913 360.608 304.213 361.028 303.614C361.449 303.014 362.022 302.538 362.689 302.233L366.104 298.002L367.039 299.977C369.418 300.42 371.615 299.125 373.744 297.171L376.755 301.477C377.143 302.032 377.413 302.661 377.547 303.324C377.682 303.988 377.678 304.671 377.537 305.333C377.395 305.995 377.119 306.621 376.725 307.172C376.331 307.723 375.828 308.188 375.246 308.537V308.537Z" fill="#2F2E41"/>
<path d="M325.421 144.796C331.658 144.796 336.714 139.754 336.714 133.534C336.714 127.314 331.658 122.271 325.421 122.271C319.184 122.271 314.128 127.314 314.128 133.534C314.128 139.754 319.184 144.796 325.421 144.796Z" fill="#FFB8B8"/>
<path d="M339.224 157.309L324.48 154.181L322.598 141.98L332.95 139.79L339.224 157.309Z" fill="#FFB8B8"/>
<path d="M335.146 190.783H308.795L314.734 175.912C314.303 170.795 316.478 167.031 319.59 163.755L323.539 153.868C329.919 149.681 334.729 149.993 339.851 155.432C345.924 164.007 341.721 176.897 335.146 190.783Z" fill="#5A60CE"/>
<path d="M323.225 222.38L322.476 230.601C322.208 233.535 320.663 235.561 317.783 234.904C317.098 234.748 316.454 234.446 315.897 234.019C315.339 233.592 314.881 233.05 314.553 232.429C314.225 231.809 314.036 231.126 313.997 230.425C313.959 229.725 314.073 229.025 314.331 228.373L316.951 221.754L324.48 191.096L323.225 168.885H335.773L334.205 192.66L323.225 222.38Z" fill="#FFB8B8"/>
<path d="M336.714 169.51H322.284L323.296 160.123C323.362 158.499 324.035 156.959 325.182 155.805C326.329 154.65 327.867 153.965 329.494 153.884V153.884C330.357 153.841 331.219 153.969 332.032 154.261C332.844 154.552 333.591 155.002 334.228 155.583C334.865 156.164 335.38 156.865 335.744 157.646C336.107 158.427 336.312 159.273 336.346 160.133L336.714 169.51Z" fill="#5A60CE"/>
<path d="M339.398 121.954C341.742 121.954 343.643 120.058 343.643 117.72C343.643 115.382 341.742 113.487 339.398 113.487C337.054 113.487 335.153 115.382 335.153 117.72C335.153 120.058 337.054 121.954 339.398 121.954Z" fill="#2F2E41"/>
<path d="M335.024 116.684C335.094 115.61 335.571 114.603 336.36 113.868C337.148 113.133 338.188 112.725 339.267 112.727C339.179 112.716 339.092 112.703 339.003 112.697C337.88 112.626 336.774 113.002 335.929 113.743C335.084 114.485 334.569 115.53 334.497 116.65C334.425 117.77 334.802 118.873 335.544 119.716C336.287 120.559 337.335 121.073 338.458 121.146C338.548 121.152 338.636 121.15 338.724 121.15C337.653 121.014 336.675 120.477 335.987 119.648C335.3 118.818 334.955 117.758 335.024 116.684V116.684Z" fill="#2F2E41"/>
<path d="M335 118.492C331.215 115.36 320.356 119.34 319.655 121.446C314.536 122.142 310.66 125.12 310.66 130.416V130.416C313.704 131.66 317.165 131.507 320.907 130.416C326.872 135.264 327.281 141.358 323.653 148.358L328.116 148.447L333.648 140.384L333.913 148.562L344.143 148.358V136.637C344.176 132.741 343.276 128.892 341.519 125.411C339.925 122.323 337.451 120.519 335 118.492Z" fill="#2F2E41"/>
<path d="M325.474 139.199C326.595 139.199 327.504 137.93 327.504 136.365C327.504 134.8 326.595 133.531 325.474 133.531C324.353 133.531 323.444 134.8 323.444 136.365C323.444 137.93 324.353 139.199 325.474 139.199Z" fill="#FFB8B8"/>
<path d="M70.0667 139.961C70.0667 139.961 71.2885 118.87 77.6321 123.662C83.9756 128.455 74.8618 141.917 74.8618 141.917L70.0667 139.961Z" fill="#FFB9B9"/>
<path d="M46.4659 202.524C46.4659 202.524 60.5571 218.3 52.6733 219.384C44.7896 220.468 41.6884 204.522 41.6884 204.522L46.4659 202.524Z" fill="#FFB9B9"/>
<path d="M28.0783 127.85C29.8469 128.314 31.4385 129.289 32.6533 130.652C33.8681 132.015 34.652 133.706 34.9064 135.512L39.3887 167.327L45.6722 192.706C45.6722 192.706 48.814 195.525 47.5573 197.092C46.3006 198.659 49.1282 205.238 49.1282 205.238L41.2737 207.745C41.2737 207.745 40.3312 201.165 38.7603 200.852C37.3798 200.576 21.9256 159.406 18.2005 149.432C17.6869 148.057 17.3962 147.275 17.3962 147.275C17.3962 147.275 18.0246 126.283 28.0783 127.85Z" fill="#5A60CE"/>
<path d="M29.5129 293.763L34.3373 302.289C38.0733 310.243 34.7533 311.688 25.5931 307.745L23.505 297.678L29.5129 293.763Z" fill="#FFB9B9"/>
<path d="M31.9471 305.094C31.9471 305.094 34.2373 301.376 35.0656 301.998C35.8939 302.621 39.3106 305.318 39.3106 305.318L43.7609 309.568C43.7609 309.568 58.7965 311.154 49.2425 316.407C39.6885 321.661 34.4087 317.305 34.4087 317.305C34.4087 317.305 21.0275 317.999 21.2433 314.276C21.4592 310.553 25.7747 304.663 25.7747 304.663C25.7747 304.663 31.2138 308.299 31.9471 305.094Z" fill="#2F2E41"/>
<path d="M8.10461 197.389L12.6275 251.966C12.6275 251.966 12.7783 284.591 17.6027 290.906C22.4271 297.221 22.5778 300.378 22.5778 300.378L32.5282 295.266C32.5282 295.266 27.4023 286.748 28.4576 285.444C29.1081 284.617 29.5711 283.659 29.8145 282.637L27.1007 248.959L32.2267 190.323L8.10461 197.389Z" fill="#2F2E41"/>
<path d="M20.4669 293.763L16.2456 304.888L6.67212 300.897L11.7228 292.56L20.4669 293.763Z" fill="#FFB9B9"/>
<path d="M13.4247 301.141C13.4247 301.141 17.0152 298.903 17.464 299.798C17.9128 300.693 19.7081 304.498 19.7081 304.498L21.7278 310.093C21.7278 310.093 34.0703 317.925 23.5231 318.373C12.9758 318.821 10.2829 312.778 10.2829 312.778C10.2829 312.778 -1.61072 307.631 0.184558 304.498C1.97984 301.365 8.26327 298.115 8.26327 298.115C8.26327 298.115 11.405 303.603 13.4247 301.141Z" fill="#2F2E41"/>
<path d="M46.3984 197.539L48.8106 247.756C48.8106 247.756 26.7992 293.161 24.387 294.364C23.6682 294.734 23.0311 295.244 22.5132 295.864C21.9953 296.484 21.6072 297.201 21.3717 297.972L8.10461 294.665L14.1351 285.042L27.4023 252.868C27.4023 252.868 29.5129 251.966 30.116 248.959C30.7191 245.952 31.9252 245.952 28.9099 245.35C25.8946 244.749 25.8946 241.742 25.8946 241.742L15.9443 196.036L46.3984 197.539Z" fill="#2F2E41"/>
<path d="M47.4487 108.656C48.5157 102.099 44.0505 95.9204 37.4754 94.8563C30.9003 93.7923 24.7051 98.2452 23.6381 104.802C22.5711 111.359 27.0364 117.537 33.6115 118.601C40.1866 119.666 46.3817 115.213 47.4487 108.656Z" fill="#FFB9B9"/>
<path d="M24.8393 107.481C24.8393 107.481 23.9347 122.816 22.7286 124.32C21.5225 125.823 35.3927 125.523 35.3927 125.523C35.3927 125.523 34.4881 112.593 35.3927 111.39C36.2973 110.187 24.8393 107.481 24.8393 107.481Z" fill="#FFB9B9"/>
<path d="M47.3018 200.848C47.3018 200.848 13.2294 197.841 6.89893 200.848C6.89893 200.848 9.22934 192.226 8.62718 191.325C8.18925 190.666 9.39747 166.108 9.01819 151.942C8.80314 143.948 6.95367 136.142 12.33 130.207C14.16 128.191 16.201 126.499 18.3555 125.672C18.3555 125.672 17.7533 119.96 20.768 119.659C20.768 119.659 32.2285 118.454 36.4475 122.065C37.7964 123.212 38.6449 126.705 38.7349 129.716C36.6469 139.955 37.3859 151.318 39.3018 163.106C39.4191 163.854 39.5482 164.607 39.6772 165.36C41.7104 177.05 44.7837 189.103 47.3018 200.848Z" fill="#5A60CE"/>
<path d="M29.2426 110.273C30.2626 110.213 31.2586 110.556 32.2715 110.691C35.8955 111.17 39.6655 108.548 40.4657 104.991C40.5298 104.517 40.6714 104.057 40.8848 103.629C41.4425 102.721 42.7127 102.547 43.7599 102.756C44.807 102.965 45.7996 103.454 46.8659 103.51C48.5125 103.596 50.0932 102.585 50.9707 101.193C51.7999 99.7567 52.1526 98.0959 51.9782 96.4479L51.1889 97.274C50.8681 96.5974 50.7443 95.8445 50.8314 95.1011C50.4132 94.99 49.9733 94.9878 49.5539 95.0948C49.1346 95.2018 48.7498 95.4144 48.4364 95.7122C47.7404 95.7861 48.2657 94.4248 47.7486 93.9543C47.4972 93.8002 47.1974 93.7443 46.9071 93.7973C45.4264 93.8116 44.2286 92.6822 43.0618 91.773C41.0402 90.2012 38.6761 89.1258 36.1606 88.6337C34.4887 88.3085 32.7108 88.2563 31.1251 88.8771C29.8452 89.4501 28.6899 90.2674 27.7246 91.2827C25.2421 93.6632 23.0439 96.4602 22.0112 99.7366C21.1716 102.42 21.1478 105.292 21.9428 107.989C22.359 109.389 23.6131 114.186 25.4491 114.298C27.7562 114.438 26.371 110.444 29.2426 110.273Z" fill="#2F2E41"/>
<path d="M34.2349 129.326L38.556 129.788C38.556 129.788 42.7977 137.994 42.4897 139.706C42.1816 141.418 41.5108 140.379 43.4199 143.117C45.3291 145.856 50.7465 152.935 51.4173 153.974C52.0882 155.014 70.3768 141.098 69.2398 136.929C69.2398 136.929 75.0159 141.061 77.4905 141.611C77.4905 141.611 58.6426 166.262 56.0161 169.417C53.3896 172.572 51.2757 171.924 47.6661 170.053C44.0566 168.183 25.796 149.525 25.796 149.525L34.2349 129.326Z" fill="#5A60CE"/>
<path opacity="0.1" d="M39.6772 165.36L24.6586 150.382L28.4592 149.146L39.3018 163.106C39.4192 163.854 39.5482 164.607 39.6772 165.36Z" fill="black"/>
</g>
<defs>
<clipPath id="clip0">
<rect width="377.646" height="284.345" fill="white" transform="translate(0 34.6545)"/>
</clipPath>
</defs>
</svg>
