<svg width="340" height="287" viewBox="0 0 340 287" fill="none" xmlns="http://www.w3.org/2000/svg">
<circle cx="169.082" cy="120.316" r="120.316" fill="#C4C4C4" fill-opacity="0.12"/>
<g clip-path="url(#clip0)">
<path d="M156.683 85.7533H72.8676C72.4561 85.7528 72.0616 85.5896 71.7706 85.2994C71.4796 85.0092 71.3159 84.6158 71.3154 84.2054V63.4716C71.3159 63.0612 71.4796 62.6678 71.7706 62.3776C72.0616 62.0874 72.4561 61.9242 72.8676 61.9237H156.683C157.094 61.9242 157.489 62.0874 157.78 62.3776C158.071 62.6678 158.235 63.0612 158.235 63.4716V84.2054C158.235 84.6158 158.071 85.0092 157.78 85.2994C157.489 85.5896 157.094 85.7528 156.683 85.7533V85.7533ZM72.8676 62.5428C72.6207 62.5431 72.3839 62.641 72.2094 62.8152C72.0348 62.9893 71.9366 63.2253 71.9363 63.4716V84.2054C71.9366 84.4517 72.0348 84.6877 72.2094 84.8618C72.3839 85.036 72.6207 85.1339 72.8676 85.1342H156.683C156.93 85.1339 157.167 85.036 157.341 84.8618C157.516 84.6877 157.614 84.4517 157.614 84.2054V63.4716C157.614 63.2253 157.516 62.9893 157.341 62.8152C157.167 62.6411 156.93 62.5431 156.683 62.5429L72.8676 62.5428Z" fill="#3F3D56"/>
<path d="M85.8908 79.3481C89.3827 79.3481 92.2134 76.5251 92.2134 73.0429C92.2134 69.5606 89.3827 66.7377 85.8908 66.7377C82.399 66.7377 79.5682 69.5606 79.5682 73.0429C79.5682 76.5251 82.399 79.3481 85.8908 79.3481Z" fill="#5A60CE"/>
<path d="M100.493 68.8395C100.213 68.8395 99.9455 68.9502 99.7478 69.1473C99.5502 69.3443 99.4392 69.6116 99.4392 69.8903C99.4392 70.1691 99.5502 70.4364 99.7478 70.6334C99.9455 70.8305 100.213 70.9412 100.493 70.9412H150.17C150.45 70.9412 150.718 70.8305 150.915 70.6334C151.113 70.4364 151.224 70.1691 151.224 69.8903C151.224 69.6116 151.113 69.3443 150.915 69.1473C150.718 68.9502 150.45 68.8395 150.17 68.8395H100.493Z" fill="#E6E6E6"/>
<path d="M100.493 75.1447C100.213 75.1447 99.9455 75.2554 99.7478 75.4524C99.5502 75.6495 99.4392 75.9168 99.4392 76.1955C99.4392 76.4742 99.5502 76.7415 99.7478 76.9386C99.9455 77.1357 100.213 77.2464 100.493 77.2464H121.869C122.008 77.2467 122.145 77.2197 122.273 77.167C122.401 77.1143 122.518 77.0369 122.616 76.9393C122.714 76.8417 122.792 76.7257 122.845 76.5981C122.898 76.4705 122.925 76.3337 122.925 76.1955C122.925 76.0574 122.898 75.9206 122.845 75.7929C122.792 75.6653 122.714 75.5494 122.616 75.4518C122.518 75.3542 122.401 75.2768 122.273 75.2241C122.145 75.1714 122.008 75.1444 121.869 75.1447H100.493Z" fill="#E6E6E6"/>
<path d="M120.295 159.66H83.0441C82.6326 159.66 82.2381 159.496 81.9471 159.206C81.6561 158.916 81.4924 158.523 81.4919 158.112V119.423C81.4924 119.013 81.6561 118.619 81.9471 118.329C82.2381 118.039 82.6326 117.876 83.0441 117.875H120.295C120.707 117.876 121.101 118.039 121.392 118.329C121.683 118.619 121.847 119.013 121.848 119.423V158.112C121.847 158.523 121.683 158.916 121.392 159.206C121.101 159.496 120.707 159.66 120.295 159.66ZM83.0441 118.494C82.7972 118.495 82.5604 118.592 82.3859 118.767C82.2113 118.941 82.1131 119.177 82.1128 119.423V158.112C82.1131 158.358 82.2113 158.594 82.3859 158.769C82.5604 158.943 82.7972 159.041 83.0441 159.041H120.295C120.542 159.041 120.779 158.943 120.954 158.769C121.128 158.594 121.226 158.358 121.227 158.112V119.423C121.226 119.177 121.128 118.941 120.954 118.767C120.779 118.592 120.542 118.495 120.295 118.494H83.0441Z" fill="#3F3D56"/>
<path d="M90.9815 125.854C90.702 125.854 90.434 125.964 90.2364 126.161C90.0388 126.358 89.9277 126.626 89.9277 126.904C89.9277 127.183 90.0388 127.45 90.2364 127.647C90.434 127.845 90.702 127.955 90.9815 127.955H112.358C112.637 127.955 112.905 127.845 113.103 127.647C113.301 127.45 113.412 127.183 113.412 126.904C113.412 126.626 113.301 126.358 113.103 126.161C112.905 125.964 112.637 125.854 112.358 125.854H90.9815Z" fill="#E6E6E6"/>
<path d="M90.9815 132.045C90.8429 132.045 90.7057 132.072 90.5776 132.124C90.4495 132.177 90.3332 132.254 90.2351 132.352C90.1371 132.45 90.0593 132.566 90.0062 132.693C89.9531 132.821 89.9258 132.958 89.9258 133.096C89.9258 133.234 89.9531 133.371 90.0062 133.498C90.0593 133.626 90.1371 133.742 90.2351 133.84C90.3332 133.937 90.4495 134.015 90.5776 134.067C90.7057 134.12 90.8429 134.147 90.9815 134.147H112.358C112.637 134.147 112.905 134.036 113.103 133.839C113.301 133.642 113.412 133.374 113.412 133.096C113.412 132.817 113.301 132.55 113.103 132.353C112.905 132.156 112.637 132.045 112.358 132.045H90.9815Z" fill="#E6E6E6"/>
<path d="M101.67 151.681C100.358 151.681 99.0755 151.294 97.9847 150.567C96.894 149.84 96.0438 148.807 95.5418 147.598C95.0397 146.389 94.9084 145.059 95.1643 143.776C95.4203 142.493 96.052 141.315 96.9796 140.389C97.9073 139.464 99.0891 138.834 100.376 138.579C101.662 138.324 102.996 138.455 104.208 138.956C105.42 139.456 106.456 140.304 107.185 141.392C107.914 142.48 108.303 143.758 108.303 145.067C108.301 146.82 107.601 148.502 106.358 149.742C105.114 150.982 103.428 151.679 101.67 151.681V151.681Z" fill="#FF9529"/>
<path d="M181.319 31.1782H218.571C218.982 31.1787 219.377 31.3419 219.668 31.6321C219.959 31.9223 220.122 32.3157 220.123 32.7261V71.4152C220.122 71.8256 219.959 72.219 219.668 72.5092C219.377 72.7994 218.982 72.9626 218.571 72.9631H181.319C180.908 72.9626 180.513 72.7994 180.222 72.5092C179.931 72.219 179.768 71.8256 179.767 71.4152V32.7261C179.768 32.3157 179.931 31.9223 180.222 31.6321C180.513 31.3419 180.908 31.1787 181.319 31.1782V31.1782ZM218.571 72.344C218.817 72.3437 219.054 72.2458 219.229 72.0716C219.403 71.8975 219.502 71.6615 219.502 71.4152V32.7261C219.502 32.4799 219.403 32.2438 219.229 32.0697C219.054 31.8956 218.817 31.7976 218.571 31.7974H181.319C181.072 31.7976 180.836 31.8956 180.661 32.0697C180.486 32.2438 180.388 32.4799 180.388 32.7261V71.4152C180.388 71.6615 180.486 71.8975 180.661 72.0716C180.836 72.2458 181.072 72.3437 181.319 72.344H218.571Z" fill="#3F3D56"/>
<path d="M210.633 64.9847C210.913 64.9847 211.181 64.8739 211.378 64.6769C211.576 64.4798 211.687 64.2125 211.687 63.9338C211.687 63.6551 211.576 63.3878 211.378 63.1907C211.181 62.9936 210.913 62.8829 210.633 62.8829H189.257C188.977 62.8829 188.709 62.9936 188.512 63.1907C188.314 63.3878 188.203 63.6551 188.203 63.9338C188.203 64.2125 188.314 64.4798 188.512 64.6769C188.709 64.8739 188.977 64.9847 189.257 64.9847H210.633Z" fill="#E6E6E6"/>
<path d="M210.633 58.7931C210.913 58.7931 211.181 58.6824 211.378 58.4854C211.576 58.2883 211.687 58.021 211.687 57.7423C211.687 57.4636 211.576 57.1963 211.378 56.9992C211.181 56.8021 210.913 56.6914 210.633 56.6914H189.257C188.977 56.6914 188.709 56.8021 188.512 56.9992C188.314 57.1963 188.203 57.4636 188.203 57.7423C188.203 58.021 188.314 58.2883 188.512 58.4854C188.709 58.6824 188.977 58.7931 189.257 58.7931H210.633Z" fill="#E6E6E6"/>
<path d="M199.945 39.1566C201.257 39.1566 202.539 39.5446 203.63 40.2714C204.721 40.9982 205.571 42.0313 206.073 43.24C206.575 44.4487 206.706 45.7787 206.45 47.0618C206.195 48.3449 205.563 49.5236 204.635 50.4486C203.708 51.3737 202.526 52.0037 201.239 52.259C199.952 52.5142 198.619 52.3832 197.407 51.8825C196.195 51.3819 195.159 50.5341 194.43 49.4463C193.701 48.3585 193.312 47.0796 193.312 45.7713C193.314 44.0176 194.013 42.3363 195.257 41.0962C196.5 39.8561 198.186 39.1586 199.945 39.1566Z" fill="#5A60CE"/>
<path d="M71.7942 111.22C78.3861 106.129 86.0875 102.657 94.275 101.085C102.528 99.5172 111.038 99.9533 119.086 102.357C123.131 103.558 127.018 105.238 130.664 107.36C134.378 109.525 137.735 112.191 140.964 115.013C144.235 117.873 147.399 120.859 150.814 123.551C160.564 131.323 172.668 135.569 185.15 135.596C186.181 135.598 187.212 135.57 188.241 135.511C188.8 135.481 188.803 134.611 188.241 134.641C175.518 135.34 162.954 131.554 152.748 123.946C149.208 121.306 145.976 118.288 142.677 115.364C139.478 112.528 136.193 109.77 132.564 107.492C123.687 101.915 113.36 99.0683 102.871 99.3067C92.3825 99.5451 82.1962 102.858 73.5833 108.833C72.7644 109.401 71.9645 109.994 71.1774 110.605C70.7349 110.949 71.3562 111.56 71.7942 111.22V111.22Z" fill="#3F3D56"/>
<path d="M71.331 115.425C73.8345 115.425 75.864 113.401 75.864 110.904C75.864 108.407 73.8345 106.383 71.331 106.383C68.8275 106.383 66.798 108.407 66.798 110.904C66.798 113.401 68.8275 115.425 71.331 115.425Z" fill="#3F3D56"/>
<path d="M239.969 175.446C242.473 175.446 244.502 173.422 244.502 170.925C244.502 168.428 242.473 166.405 239.969 166.405C237.466 166.405 235.436 168.428 235.436 170.925C235.436 173.422 237.466 175.446 239.969 175.446Z" fill="#3F3D56"/>
<path d="M263.716 145.174H189.751C189.34 145.173 188.945 145.01 188.654 144.72C188.363 144.43 188.199 144.036 188.199 143.626V105.246C188.199 104.836 188.363 104.443 188.654 104.152C188.945 103.862 189.34 103.699 189.751 103.698H263.716C264.128 103.699 264.522 103.862 264.813 104.152C265.104 104.443 265.268 104.836 265.269 105.246V143.626C265.268 144.036 265.104 144.43 264.813 144.72C264.522 145.01 264.128 145.173 263.716 145.174ZM189.751 104.318C189.504 104.318 189.267 104.416 189.093 104.59C188.918 104.764 188.82 105 188.82 105.246V143.626C188.82 143.872 188.918 144.108 189.093 144.282C189.267 144.456 189.504 144.554 189.751 144.555H263.716C263.963 144.554 264.2 144.456 264.375 144.282C264.549 144.108 264.647 143.872 264.648 143.626V105.246C264.647 105 264.549 104.764 264.375 104.59C264.2 104.416 263.963 104.318 263.716 104.318H189.751Z" fill="#3F3D56"/>
<path d="M202.154 123.599C205.645 123.599 208.476 120.776 208.476 117.294C208.476 113.812 205.645 110.989 202.154 110.989C198.662 110.989 195.831 113.812 195.831 117.294C195.831 120.776 198.662 123.599 202.154 123.599Z" fill="#FF9529"/>
<path d="M216.756 113.091C216.617 113.09 216.48 113.117 216.352 113.17C216.224 113.223 216.107 113.3 216.009 113.398C215.911 113.495 215.833 113.611 215.78 113.739C215.727 113.866 215.7 114.003 215.7 114.141C215.7 114.28 215.727 114.416 215.78 114.544C215.833 114.672 215.911 114.788 216.009 114.885C216.107 114.983 216.224 115.06 216.352 115.113C216.48 115.166 216.617 115.193 216.756 115.192H256.583C256.863 115.192 257.131 115.082 257.328 114.885C257.526 114.687 257.637 114.42 257.637 114.141C257.637 113.863 257.526 113.595 257.328 113.398C257.131 113.201 256.863 113.091 256.583 113.091H216.756Z" fill="#E6E6E6"/>
<path d="M216.756 119.396C216.617 119.396 216.48 119.422 216.352 119.475C216.224 119.528 216.107 119.605 216.009 119.703C215.911 119.8 215.833 119.916 215.78 120.044C215.727 120.172 215.7 120.308 215.7 120.447C215.7 120.585 215.727 120.722 215.78 120.849C215.833 120.977 215.911 121.093 216.009 121.19C216.107 121.288 216.224 121.365 216.352 121.418C216.48 121.471 216.617 121.498 216.756 121.497H238.132C238.411 121.497 238.679 121.387 238.877 121.19C239.075 120.993 239.186 120.725 239.186 120.447C239.186 120.168 239.075 119.901 238.877 119.704C238.679 119.506 238.411 119.396 238.132 119.396H216.756Z" fill="#E6E6E6"/>
<path d="M197.304 129.476C196.502 129.476 195.85 129.948 195.85 130.527C195.85 131.106 196.502 131.578 197.304 131.578H255.993C256.795 131.578 257.447 131.106 257.447 130.527C257.447 129.948 256.795 129.476 255.993 129.476H197.304Z" fill="#E6E6E6"/>
<path d="M197.304 135.781C196.502 135.781 195.85 136.253 195.85 136.832C195.85 137.411 196.502 137.883 197.304 137.883H255.993C256.795 137.883 257.447 137.411 257.447 136.832C257.447 136.253 256.795 135.781 255.993 135.781H197.304Z" fill="#E6E6E6"/>
<path d="M183.805 175.134C187.978 173.329 192.637 174.902 196.57 176.566C198.596 177.423 200.6 178.338 202.696 179.014C204.46 179.582 206.266 180.009 208.097 180.291C211.773 180.852 215.51 180.875 219.192 180.358C222.893 179.844 226.499 178.798 229.9 177.254C233.281 175.725 236.407 173.687 239.167 171.212C239.518 170.895 239.862 170.572 240.2 170.241C240.601 169.848 239.984 169.234 239.583 169.626C236.925 172.21 233.874 174.357 230.543 175.99C227.225 177.617 223.687 178.751 220.04 179.355C216.381 179.97 212.65 180.034 208.972 179.545C207.137 179.298 205.325 178.905 203.553 178.371C201.517 177.71 199.52 176.937 197.571 176.054C193.602 174.354 189.191 172.689 184.829 173.861C184.329 173.999 183.84 174.174 183.365 174.383C182.852 174.605 183.295 175.354 183.805 175.134V175.134Z" fill="#3F3D56"/>
<path d="M182.193 185.802H147.248L155.472 171.597C155.619 171.343 155.831 171.131 156.087 170.984C156.342 170.837 156.632 170.76 156.926 170.76C157.221 170.76 157.511 170.837 157.766 170.984C158.021 171.131 158.233 171.343 158.381 171.597L161.894 177.665L167.867 167.348C168.052 167.029 168.317 166.764 168.637 166.58C168.956 166.396 169.319 166.299 169.688 166.299C170.057 166.299 170.42 166.396 170.739 166.58C171.059 166.764 171.324 167.029 171.509 167.348L182.193 185.802Z" fill="#5A60CE"/>
<path d="M182.226 185.799H144.975C144.563 185.798 144.169 185.635 143.878 185.345C143.587 185.055 143.423 184.661 143.423 184.251V163.517C143.423 163.107 143.587 162.713 143.878 162.423C144.169 162.133 144.563 161.97 144.975 161.969H182.226C182.638 161.97 183.032 162.133 183.323 162.423C183.614 162.713 183.778 163.107 183.778 163.517V184.251C183.778 184.661 183.614 185.055 183.323 185.345C183.032 185.635 182.638 185.798 182.226 185.799ZM144.975 162.588C144.728 162.589 144.491 162.686 144.317 162.861C144.142 163.035 144.044 163.271 144.043 163.517V184.251C144.044 184.497 144.142 184.733 144.317 184.907C144.491 185.081 144.728 185.179 144.975 185.18H182.226C182.473 185.179 182.71 185.081 182.884 184.907C183.059 184.733 183.157 184.497 183.157 184.251V163.517C183.157 163.271 183.059 163.035 182.884 162.861C182.71 162.686 182.473 162.589 182.226 162.588H144.975Z" fill="#3F3D56"/>
<path d="M255.29 167.551L248.65 170.913C246.28 172.113 243.993 171.908 243.117 169.405C242.908 168.81 242.831 168.176 242.891 167.549C242.951 166.921 243.146 166.313 243.463 165.767C243.78 165.221 244.212 164.75 244.729 164.386C245.245 164.023 245.835 163.774 246.456 163.658L252.767 162.484L279.795 153.541L296.167 141.964L302.168 151.499L283.251 161.679L255.29 167.551Z" fill="#FFB8B8"/>
<path d="M286.286 279.162L281.205 278.318L281.77 268.748H287.133L286.286 279.162Z" fill="#FFB8B8"/>
<path d="M335.592 269.815L330.675 271.345L326.855 262.549L331.641 260.139L335.592 269.815Z" fill="#FFB8B8"/>
<path d="M332.854 261.43L326.645 263.963L297.011 225.122L287.697 270.718L281.488 269.592C277.505 230.282 274.257 190.187 278.242 171.223L301.244 170.238L311.687 203.45L316.767 225.966L332.854 261.43Z" fill="#2F2E41"/>
<path d="M286.006 286.901C285.077 287.1 284.109 286.997 283.243 286.608L280.225 285.254C277.694 285.125 275.971 285.627 274.562 283.794C274.165 283.27 273.915 282.649 273.839 281.996C273.764 281.343 273.864 280.682 274.131 280.081V280.081C274.396 279.479 274.816 278.957 275.35 278.569C275.884 278.182 276.511 277.944 277.168 277.878L281.313 275.273L281.53 277.226C283.425 278.297 285.674 277.834 288.057 276.792L289.358 281.333C289.526 281.919 289.571 282.532 289.491 283.136C289.412 283.74 289.208 284.321 288.894 284.843C288.58 285.365 288.161 285.817 287.664 286.171C287.167 286.525 286.603 286.774 286.006 286.901Z" fill="#2F2E41"/>
<path d="M337.604 277.587C336.79 278.075 335.841 278.292 334.895 278.204L331.6 277.901C329.164 278.598 327.698 279.631 325.768 278.353C325.222 277.986 324.784 277.48 324.499 276.887C324.215 276.294 324.095 275.636 324.152 274.982C324.206 274.326 324.434 273.696 324.812 273.157C325.191 272.618 325.707 272.189 326.306 271.915L329.379 268.109L330.22 269.885C332.36 270.284 334.337 269.118 336.252 267.361L338.961 271.235C339.311 271.734 339.553 272.3 339.674 272.897C339.795 273.493 339.792 274.109 339.665 274.704C339.538 275.3 339.289 275.863 338.934 276.359C338.58 276.855 338.127 277.273 337.604 277.587V277.587Z" fill="#2F2E41"/>
<path d="M292.777 130.271C298.388 130.271 302.937 125.734 302.937 120.138C302.937 114.542 298.388 110.006 292.777 110.006C287.165 110.006 282.616 114.542 282.616 120.138C282.616 125.734 287.165 130.271 292.777 130.271Z" fill="#FFB8B8"/>
<path d="M305.195 141.529L291.93 138.715L290.237 127.738L299.55 125.768L305.195 141.529Z" fill="#FFB8B8"/>
<path d="M301.526 171.645H277.819L283.162 158.266C282.774 153.662 284.731 150.276 287.531 147.328L291.084 138.433C296.824 134.666 301.151 134.947 305.76 139.84C311.223 147.555 307.441 159.152 301.526 171.645Z" fill="#5A60CE"/>
<path d="M290.801 200.072L290.127 207.468C289.886 210.108 288.496 211.931 285.905 211.34C285.289 211.2 284.71 210.928 284.208 210.544C283.707 210.159 283.294 209.672 282.999 209.113C282.704 208.555 282.534 207.941 282.499 207.311C282.465 206.681 282.567 206.051 282.8 205.464L285.157 199.509L291.93 171.927L290.801 151.943H302.091L300.679 173.334L290.801 200.072Z" fill="#FFB8B8"/>
<path d="M302.937 152.506H289.955L290.865 144.06C290.925 142.599 291.53 141.214 292.562 140.175C293.593 139.137 294.977 138.521 296.442 138.447V138.447C297.217 138.409 297.993 138.524 298.724 138.786C299.455 139.049 300.127 139.453 300.7 139.976C301.273 140.499 301.737 141.13 302.064 141.832C302.391 142.535 302.575 143.295 302.606 144.07L302.937 152.506Z" fill="#5A60CE"/>
<path d="M305.352 109.72C307.461 109.72 309.171 108.015 309.171 105.911C309.171 103.808 307.461 102.103 305.352 102.103C303.243 102.103 301.533 103.808 301.533 105.911C301.533 108.015 303.243 109.72 305.352 109.72Z" fill="#2F2E41"/>
<path d="M301.417 104.979C301.48 104.013 301.909 103.107 302.619 102.445C303.328 101.784 304.263 101.417 305.234 101.419C305.155 101.409 305.077 101.397 304.997 101.392C303.986 101.328 302.992 101.666 302.231 102.333C301.471 103 301.008 103.941 300.943 104.949C300.878 105.956 301.217 106.948 301.885 107.707C302.553 108.465 303.496 108.928 304.507 108.993C304.587 108.999 304.666 108.997 304.746 108.997C303.782 108.875 302.902 108.392 302.283 107.645C301.665 106.899 301.355 105.945 301.417 104.979V104.979Z" fill="#2F2E41"/>
<path d="M301.395 106.605C297.989 103.788 288.22 107.369 287.59 109.263C282.984 109.889 279.497 112.569 279.497 117.334V117.334C282.235 118.453 285.349 118.315 288.716 117.334C294.082 121.695 294.45 127.178 291.186 133.475L295.202 133.555L300.179 126.301L300.417 133.659L309.62 133.475V122.931C309.65 119.425 308.841 115.962 307.26 112.831C305.826 110.052 303.6 108.429 301.395 106.605Z" fill="#2F2E41"/>
<path d="M292.825 125.235C293.833 125.235 294.651 124.094 294.651 122.685C294.651 121.277 293.833 120.136 292.825 120.136C291.816 120.136 290.999 121.277 290.999 122.685C290.999 124.094 291.816 125.235 292.825 125.235Z" fill="#FFB8B8"/>
<path d="M63.0381 125.921C63.0381 125.921 64.1374 106.945 69.8446 111.257C75.5518 115.569 67.3522 127.681 67.3522 127.681L63.0381 125.921Z" fill="#FFB9B9"/>
<path d="M41.8048 182.208C41.8048 182.208 54.4824 196.401 47.3895 197.377C40.2966 198.352 37.5065 184.006 37.5065 184.006L41.8048 182.208Z" fill="#FFB9B9"/>
<path d="M25.2616 115.025C26.8528 115.442 28.2848 116.319 29.3777 117.546C30.4707 118.772 31.1759 120.293 31.4048 121.918L35.4374 150.542L41.0906 173.375C41.0906 173.375 43.9172 175.912 42.7866 177.321C41.656 178.73 44.1999 184.65 44.1999 184.65L37.1334 186.905C37.1334 186.905 36.2854 180.986 34.8721 180.704C33.63 180.456 19.7261 143.416 16.3747 134.442C15.9126 133.205 15.6511 132.501 15.6511 132.501C15.6511 132.501 16.2165 113.615 25.2616 115.025Z" fill="#5A60CE"/>
<path d="M26.5523 264.294L30.8928 271.965C34.254 279.122 31.2671 280.421 23.0257 276.874L21.1471 267.817L26.5523 264.294Z" fill="#FFB9B9"/>
<path d="M28.7423 274.489C28.7423 274.489 30.8028 271.144 31.548 271.704C32.2933 272.264 35.3672 274.69 35.3672 274.69L39.3711 278.514C39.3711 278.514 52.8984 279.941 44.3028 284.667C35.7072 289.394 30.9571 285.475 30.9571 285.475C30.9571 285.475 18.9181 286.099 19.1123 282.75C19.3065 279.4 23.1892 274.101 23.1892 274.101C23.1892 274.101 28.0826 277.372 28.7423 274.489Z" fill="#2F2E41"/>
<path d="M7.29163 177.588L11.3608 226.69C11.3608 226.69 11.4965 256.043 15.8369 261.724C20.1774 267.405 20.313 270.246 20.313 270.246L29.2652 265.647C29.2652 265.647 24.6535 257.983 25.6029 256.81C26.1882 256.066 26.6047 255.204 26.8237 254.284L24.3822 223.985L28.9939 171.231L7.29163 177.588Z" fill="#2F2E41"/>
<path d="M18.4138 264.294L14.6159 274.304L6.00281 270.713L10.5468 263.212L18.4138 264.294Z" fill="#FFB9B9"/>
<path d="M12.078 270.932C12.078 270.932 15.3083 268.919 15.7121 269.724C16.1159 270.53 17.7311 273.953 17.7311 273.953L19.5482 278.986C19.5482 278.986 30.6526 286.033 21.1634 286.436C11.6742 286.839 9.25142 281.402 9.25142 281.402C9.25142 281.402 -1.44915 276.771 0.166044 273.953C1.78123 271.134 7.43435 268.21 7.43435 268.21C7.43435 268.21 10.2609 273.147 12.078 270.932Z" fill="#2F2E41"/>
<path d="M41.744 177.724L43.9142 222.903C43.9142 222.903 24.1109 263.753 21.9407 264.835C21.294 265.168 20.7208 265.627 20.2548 266.185C19.7889 266.742 19.4397 267.387 19.2279 268.082L7.29163 265.106L12.7172 256.449L24.6535 227.502C24.6535 227.502 26.5524 226.69 27.095 223.985C27.6375 221.279 28.7226 221.279 26.0099 220.738C23.2971 220.197 23.2971 217.492 23.2971 217.492L14.3449 176.371L41.744 177.724Z" fill="#2F2E41"/>
<path d="M42.689 97.756C43.649 91.8567 39.6317 86.2984 33.7162 85.341C27.8006 84.3837 22.2269 88.39 21.267 94.2892C20.307 100.189 24.3243 105.747 30.2398 106.704C36.1554 107.662 41.7291 103.655 42.689 97.756Z" fill="#FFB9B9"/>
<path d="M22.3475 96.699C22.3475 96.699 21.5337 110.496 20.4486 111.849C19.3635 113.202 31.8423 112.931 31.8423 112.931C31.8423 112.931 31.0285 101.298 31.8423 100.216C32.6561 99.1338 22.3475 96.699 22.3475 96.699Z" fill="#FFB9B9"/>
<path d="M42.5569 180.7C42.5569 180.7 11.9023 177.995 6.20691 180.7C6.20691 180.7 8.30355 172.943 7.7618 172.133C7.3678 171.54 8.45482 149.445 8.11359 136.7C7.9201 129.508 6.25616 122.485 11.0932 117.145C12.7396 115.332 14.5759 113.809 16.5142 113.065C16.5142 113.065 15.9725 107.926 18.6847 107.656C18.6847 107.656 28.9956 106.572 32.7913 109.82C34.005 110.852 34.7684 113.995 34.8493 116.703C32.9707 125.916 33.6356 136.139 35.3594 146.744C35.4649 147.418 35.581 148.095 35.6971 148.772C37.5263 159.289 40.2914 170.133 42.5569 180.7Z" fill="#5A60CE"/>
<path d="M26.3092 99.2114C27.2268 99.1568 28.1229 99.4661 29.0342 99.5867C32.2946 100.018 35.6865 97.659 36.4064 94.4585C36.4641 94.0323 36.5915 93.6184 36.7835 93.2333C37.2853 92.4163 38.4281 92.2605 39.3701 92.4484C40.3122 92.6363 41.2052 93.076 42.1646 93.1262C43.646 93.2037 45.0682 92.2942 45.8576 91.0418C46.6037 89.7498 46.921 88.2555 46.7641 86.7728L46.0539 87.5161C45.7653 86.9073 45.6539 86.23 45.7324 85.5611C45.356 85.4612 44.9603 85.4592 44.583 85.5555C44.2057 85.6518 43.8595 85.843 43.5776 86.111C42.9514 86.1774 43.424 84.9527 42.9588 84.5294C42.7325 84.3908 42.4629 84.3405 42.2017 84.3882C40.8695 84.401 39.7919 83.3849 38.7421 82.5669C36.9233 81.1528 34.7964 80.1853 32.5332 79.7425C31.029 79.45 29.4294 79.4029 28.0029 79.9615C26.8513 80.4771 25.8119 81.2123 24.9434 82.1258C22.71 84.2675 20.7323 86.7839 19.8031 89.7316C19.0478 92.146 19.0264 94.7295 19.7416 97.156C20.116 98.4162 21.2444 102.732 22.8962 102.832C24.9718 102.959 23.7257 99.3651 26.3092 99.2114Z" fill="#2F2E41"/>
<path d="M30.8007 116.353L34.6883 116.768C34.6883 116.768 38.5045 124.152 38.2274 125.692C37.9503 127.232 37.3467 126.297 39.0644 128.761C40.782 131.225 45.656 137.594 46.2595 138.529C46.8631 139.464 63.3171 126.944 62.2942 123.193C62.2942 123.193 67.4908 126.911 69.7172 127.406C69.7172 127.406 52.76 149.584 50.397 152.422C48.0339 155.26 46.1321 154.677 42.8846 152.995C39.6372 151.312 23.2084 134.526 23.2084 134.526L30.8007 116.353Z" fill="#5A60CE"/>
<path opacity="0.1" d="M35.697 148.772L22.1849 135.297L25.6043 134.185L35.3593 146.744C35.4648 147.418 35.5809 148.095 35.697 148.772Z" fill="black"/>
</g>
<defs>
<clipPath id="clip0">
<rect width="339.763" height="255.822" fill="white" transform="translate(0 31.1782)"/>
</clipPath>
</defs>
</svg>
