<svg width="425" height="359" viewBox="0 0 425 359" fill="none" xmlns="http://www.w3.org/2000/svg">
<circle cx="211.5" cy="150.5" r="150.5" fill="#C4C4C4" fill-opacity="0.12"/>
<g clip-path="url(#clip0)">
<path d="M195.99 107.266H91.1479C90.6332 107.266 90.1397 107.061 89.7758 106.698C89.4118 106.336 89.207 105.843 89.2064 105.33V79.3947C89.207 78.8814 89.4118 78.3892 89.7758 78.0263C90.1397 77.6633 90.6332 77.4591 91.1479 77.4585H195.99C196.505 77.4591 196.998 77.6633 197.362 78.0263C197.726 78.3892 197.931 78.8814 197.932 79.3947V105.33C197.931 105.843 197.726 106.336 197.362 106.698C196.998 107.061 196.505 107.266 195.99 107.266ZM91.1479 78.233C90.8391 78.2333 90.543 78.3558 90.3246 78.5736C90.1062 78.7914 89.9834 79.0867 89.983 79.3947V105.33C89.9834 105.638 90.1062 105.933 90.3246 106.151C90.543 106.369 90.8391 106.491 91.1479 106.492H195.99C196.299 106.491 196.595 106.369 196.814 106.151C197.032 105.933 197.155 105.638 197.155 105.33V79.3947C197.155 79.0867 197.032 78.7914 196.814 78.5736C196.595 78.3558 196.299 78.2333 195.99 78.233L91.1479 78.233Z" fill="#3F3D56"/>
<path d="M107.438 99.2542C111.806 99.2542 115.347 95.7231 115.347 91.3672C115.347 87.0113 111.806 83.4802 107.438 83.4802C103.07 83.4802 99.5295 87.0113 99.5295 91.3672C99.5295 95.7231 103.07 99.2542 107.438 99.2542Z" fill="#5A60CE"/>
<path d="M125.704 86.1094C125.354 86.1094 125.019 86.2479 124.772 86.4944C124.524 86.7409 124.385 87.0753 124.385 87.4239C124.385 87.7725 124.524 88.1069 124.772 88.3534C125.019 88.5999 125.354 88.7384 125.704 88.7384H187.844C188.193 88.7384 188.528 88.5999 188.776 88.3534C189.023 88.1069 189.162 87.7725 189.162 87.4239C189.162 87.0753 189.023 86.7409 188.776 86.4944C188.528 86.2479 188.193 86.1094 187.844 86.1094H125.704Z" fill="#E6E6E6"/>
<path d="M125.704 93.9963C125.354 93.9963 125.019 94.1348 124.772 94.3813C124.524 94.6279 124.385 94.9622 124.385 95.3108C124.385 95.6595 124.524 95.9938 124.772 96.2403C125.019 96.4869 125.354 96.6254 125.704 96.6254H152.443C152.616 96.6257 152.788 96.5919 152.948 96.526C153.108 96.4601 153.254 96.3633 153.376 96.2412C153.499 96.1191 153.596 95.9741 153.663 95.8144C153.729 95.6548 153.763 95.4837 153.763 95.3108C153.763 95.138 153.729 94.9669 153.663 94.8073C153.596 94.6476 153.499 94.5026 153.376 94.3805C153.254 94.2584 153.108 94.1616 152.948 94.0957C152.788 94.0298 152.616 93.996 152.443 93.9963H125.704Z" fill="#E6E6E6"/>
<path d="M150.474 199.714H103.877C103.363 199.714 102.869 199.509 102.505 199.146C102.141 198.783 101.936 198.291 101.936 197.778V149.383C101.936 148.87 102.141 148.377 102.505 148.014C102.869 147.651 103.363 147.447 103.877 147.447H150.474C150.989 147.447 151.482 147.651 151.846 148.014C152.21 148.377 152.415 148.87 152.415 149.383V197.778C152.415 198.291 152.21 198.783 151.846 199.146C151.482 199.509 150.989 199.714 150.474 199.714ZM103.877 148.221C103.568 148.221 103.272 148.344 103.054 148.562C102.836 148.78 102.713 149.075 102.712 149.383V197.778C102.713 198.086 102.836 198.381 103.054 198.599C103.272 198.817 103.568 198.939 103.877 198.94H150.474C150.783 198.939 151.079 198.817 151.297 198.599C151.516 198.381 151.639 198.086 151.639 197.778V149.383C151.639 149.075 151.516 148.78 151.297 148.562C151.079 148.344 150.783 148.221 150.474 148.221H103.877Z" fill="#3F3D56"/>
<path d="M113.806 157.427C113.457 157.427 113.121 157.565 112.874 157.812C112.627 158.058 112.488 158.392 112.488 158.741C112.488 159.09 112.627 159.424 112.874 159.671C113.121 159.917 113.457 160.056 113.806 160.056H140.545C140.895 160.056 141.23 159.917 141.477 159.671C141.724 159.424 141.863 159.09 141.863 158.741C141.863 158.392 141.724 158.058 141.477 157.812C141.23 157.565 140.895 157.427 140.545 157.427H113.806Z" fill="#E6E6E6"/>
<path d="M113.806 165.171C113.633 165.171 113.461 165.205 113.301 165.271C113.141 165.337 112.995 165.433 112.873 165.555C112.75 165.678 112.653 165.823 112.586 165.982C112.52 166.142 112.486 166.313 112.486 166.486C112.486 166.659 112.52 166.83 112.586 166.989C112.653 167.149 112.75 167.294 112.873 167.416C112.995 167.538 113.141 167.635 113.301 167.701C113.461 167.767 113.633 167.801 113.806 167.8H140.545C140.895 167.8 141.23 167.662 141.477 167.415C141.724 167.169 141.863 166.834 141.863 166.486C141.863 166.137 141.724 165.803 141.477 165.556C141.23 165.31 140.895 165.171 140.545 165.171H113.806Z" fill="#E6E6E6"/>
<path d="M127.176 189.734C125.535 189.734 123.931 189.249 122.566 188.34C121.202 187.43 120.138 186.138 119.51 184.626C118.882 183.114 118.718 181.451 119.038 179.846C119.358 178.241 120.149 176.766 121.309 175.609C122.469 174.452 123.948 173.664 125.557 173.345C127.167 173.026 128.835 173.189 130.351 173.816C131.867 174.442 133.163 175.502 134.074 176.863C134.986 178.224 135.473 179.823 135.473 181.46C135.47 183.654 134.595 185.757 133.04 187.308C131.484 188.859 129.375 189.732 127.176 189.734Z" fill="#FF9529"/>
<path d="M226.807 39H273.404C273.918 39.0006 274.412 39.2048 274.776 39.5678C275.14 39.9307 275.345 40.4229 275.345 40.9362V89.3313C275.345 89.8446 275.14 90.3368 274.776 90.6997C274.412 91.0627 273.918 91.2669 273.404 91.2675H226.807C226.292 91.2669 225.799 91.0627 225.435 90.6997C225.071 90.3368 224.866 89.8446 224.865 89.3313V40.9362C224.866 40.4229 225.071 39.9307 225.435 39.5678C225.799 39.2048 226.292 39.0006 226.807 39ZM273.404 90.493C273.712 90.4927 274.009 90.3702 274.227 90.1524C274.445 89.9346 274.568 89.6393 274.569 89.3313V40.9362C274.568 40.6282 274.445 40.3329 274.227 40.1151C274.009 39.8973 273.712 39.7748 273.404 39.7745H226.807C226.498 39.7748 226.202 39.8973 225.984 40.1151C225.765 40.3329 225.642 40.6282 225.642 40.9362V89.3313C225.642 89.6393 225.765 89.9346 225.984 90.1524C226.202 90.3702 226.498 90.4927 226.807 90.493H273.404Z" fill="#3F3D56"/>
<path d="M263.475 81.2874C263.824 81.2874 264.16 81.149 264.407 80.9024C264.654 80.6559 264.793 80.3216 264.793 79.9729C264.793 79.6243 264.654 79.29 264.407 79.0435C264.16 78.7969 263.824 78.6584 263.475 78.6584H236.736C236.386 78.6584 236.051 78.7969 235.804 79.0435C235.557 79.29 235.418 79.6243 235.418 79.9729C235.418 80.3216 235.557 80.6559 235.804 80.9024C236.051 81.149 236.386 81.2874 236.736 81.2874H263.475Z" fill="#E6E6E6"/>
<path d="M263.475 73.5428C263.824 73.5428 264.16 73.4043 264.407 73.1578C264.654 72.9113 264.793 72.577 264.793 72.2283C264.793 71.8797 264.654 71.5453 264.407 71.2988C264.16 71.0523 263.824 70.9138 263.475 70.9138H236.736C236.386 70.9138 236.051 71.0523 235.804 71.2988C235.557 71.5453 235.418 71.8797 235.418 72.2283C235.418 72.577 235.557 72.9113 235.804 73.1578C236.051 73.4043 236.386 73.5428 236.736 73.5428H263.475Z" fill="#E6E6E6"/>
<path d="M250.105 48.9799C251.746 48.9799 253.35 49.4651 254.715 50.3743C256.079 51.2835 257.143 52.5757 257.771 54.0876C258.399 55.5995 258.563 57.2632 258.243 58.8682C257.923 60.4733 257.132 61.9476 255.972 63.1047C254.812 64.2619 253.333 65.0499 251.724 65.3692C250.114 65.6885 248.446 65.5246 246.93 64.8983C245.414 64.2721 244.118 63.2116 243.207 61.8509C242.295 60.4902 241.808 58.8905 241.808 57.254C241.811 55.0603 242.686 52.9572 244.241 51.406C245.797 49.8549 247.905 48.9823 250.105 48.9799Z" fill="#5A60CE"/>
<path d="M89.8052 139.122C98.0508 132.753 107.684 128.411 117.926 126.445C128.249 124.483 138.894 125.029 148.961 128.035C154.021 129.538 158.883 131.639 163.443 134.293C168.09 137.002 172.288 140.337 176.328 143.867C180.42 147.444 184.377 151.179 188.649 154.546C200.845 164.268 215.985 169.58 231.599 169.614C232.889 169.616 234.177 169.58 235.465 169.507C236.164 169.469 236.168 168.381 235.465 168.419C219.55 169.293 203.834 164.557 191.067 155.04C186.64 151.738 182.597 147.963 178.47 144.305C174.469 140.758 170.36 137.308 165.821 134.459C154.717 127.483 141.799 123.922 128.679 124.22C115.558 124.518 102.817 128.663 92.0432 136.136C91.0188 136.846 90.0182 137.589 89.0337 138.353C88.4802 138.782 89.2573 139.547 89.8052 139.122V139.122Z" fill="#3F3D56"/>
<path d="M89.2259 144.381C92.3575 144.381 94.8961 141.85 94.8961 138.727C94.8961 135.604 92.3575 133.072 89.2259 133.072C86.0943 133.072 83.5557 135.604 83.5557 138.727C83.5557 141.85 86.0943 144.381 89.2259 144.381Z" fill="#3F3D56"/>
<path d="M300.17 219.46C303.302 219.46 305.84 216.928 305.84 213.805C305.84 210.682 303.302 208.151 300.17 208.151C297.039 208.151 294.5 210.682 294.5 213.805C294.5 216.928 297.039 219.46 300.17 219.46Z" fill="#3F3D56"/>
<path d="M329.875 181.594H237.354C236.84 181.593 236.346 181.389 235.982 181.026C235.618 180.663 235.413 180.171 235.413 179.658V131.65C235.413 131.136 235.618 130.644 235.982 130.281C236.346 129.918 236.84 129.714 237.354 129.714H329.875C330.39 129.714 330.884 129.918 331.248 130.281C331.612 130.644 331.816 131.136 331.817 131.65V179.658C331.816 180.171 331.612 180.663 331.248 181.026C330.884 181.389 330.39 181.593 329.875 181.594ZM237.354 130.488C237.045 130.488 236.749 130.611 236.531 130.829C236.312 131.046 236.19 131.342 236.189 131.65V179.658C236.19 179.966 236.313 180.261 236.531 180.479C236.749 180.696 237.045 180.819 237.354 180.819H329.875C330.184 180.819 330.48 180.696 330.699 180.479C330.917 180.261 331.04 179.966 331.04 179.658V131.65C331.04 131.342 330.917 131.046 330.699 130.829C330.48 130.611 330.184 130.488 329.875 130.488H237.354Z" fill="#3F3D56"/>
<path d="M252.868 154.607C257.236 154.607 260.777 151.076 260.777 146.72C260.777 142.364 257.236 138.833 252.868 138.833C248.5 138.833 244.959 142.364 244.959 146.72C244.959 151.076 248.5 154.607 252.868 154.607Z" fill="#FF9529"/>
<path d="M271.133 141.462C270.96 141.462 270.788 141.495 270.628 141.561C270.468 141.627 270.322 141.724 270.2 141.846C270.077 141.968 269.98 142.113 269.913 142.273C269.847 142.432 269.813 142.604 269.813 142.776C269.813 142.949 269.847 143.12 269.913 143.28C269.98 143.44 270.077 143.585 270.2 143.707C270.322 143.829 270.468 143.926 270.628 143.992C270.788 144.057 270.96 144.091 271.133 144.091H320.952C321.302 144.091 321.637 143.952 321.884 143.706C322.131 143.459 322.27 143.125 322.27 142.776C322.27 142.428 322.131 142.093 321.884 141.847C321.637 141.6 321.302 141.462 320.952 141.462H271.133Z" fill="#E6E6E6"/>
<path d="M271.133 149.349C270.96 149.349 270.788 149.382 270.628 149.448C270.468 149.514 270.322 149.611 270.2 149.733C270.077 149.855 269.98 150 269.913 150.16C269.847 150.319 269.813 150.491 269.813 150.663C269.813 150.836 269.847 151.007 269.913 151.167C269.98 151.327 270.077 151.472 270.2 151.594C270.322 151.716 270.468 151.813 270.628 151.878C270.788 151.944 270.96 151.978 271.133 151.978H297.872C298.222 151.978 298.557 151.839 298.804 151.593C299.052 151.346 299.19 151.012 299.19 150.663C299.19 150.315 299.052 149.98 298.804 149.734C298.557 149.487 298.222 149.349 297.872 149.349H271.133Z" fill="#E6E6E6"/>
<path d="M246.802 161.958C245.799 161.958 244.983 162.548 244.983 163.273C244.983 163.997 245.799 164.587 246.802 164.587H320.215C321.217 164.587 322.033 163.997 322.033 163.273C322.033 162.548 321.217 161.958 320.215 161.958H246.802Z" fill="#E6E6E6"/>
<path d="M246.802 169.845C245.799 169.845 244.983 170.435 244.983 171.159C244.983 171.884 245.799 172.474 246.802 172.474H320.215C321.217 172.474 322.033 171.884 322.033 171.159C322.033 170.435 321.217 169.845 320.215 169.845H246.802Z" fill="#E6E6E6"/>
<path d="M229.917 219.07C235.137 216.812 240.964 218.78 245.884 220.862C248.418 221.933 250.925 223.078 253.547 223.924C255.753 224.634 258.012 225.168 260.303 225.521C264.9 226.223 269.576 226.251 274.181 225.605C278.81 224.962 283.322 223.653 287.575 221.721C291.804 219.81 295.714 217.261 299.167 214.164C299.606 213.768 300.037 213.363 300.459 212.949C300.961 212.459 300.189 211.689 299.687 212.18C296.363 215.412 292.546 218.099 288.379 220.141C284.229 222.176 279.803 223.594 275.241 224.35C270.664 225.119 265.997 225.2 261.397 224.588C259.102 224.279 256.835 223.787 254.618 223.119C252.072 222.293 249.574 221.325 247.136 220.221C242.171 218.094 236.653 216.012 231.197 217.478C230.572 217.651 229.96 217.869 229.366 218.13C228.724 218.408 229.279 219.346 229.917 219.07V219.07Z" fill="#3F3D56"/>
<path d="M227.9 232.415H184.189L194.475 214.646C194.66 214.328 194.925 214.063 195.244 213.879C195.564 213.695 195.926 213.599 196.295 213.599C196.663 213.599 197.026 213.695 197.345 213.879C197.664 214.063 197.93 214.328 198.114 214.646L202.508 222.237L209.98 209.33C210.211 208.932 210.543 208.6 210.943 208.37C211.343 208.14 211.796 208.019 212.258 208.019C212.72 208.019 213.173 208.14 213.573 208.37C213.973 208.6 214.305 208.932 214.536 209.33L227.9 232.415Z" fill="#5A60CE"/>
<path d="M227.941 232.41H181.345C180.83 232.41 180.337 232.205 179.973 231.843C179.609 231.48 179.404 230.987 179.403 230.474V204.539C179.404 204.025 179.609 203.533 179.973 203.17C180.337 202.807 180.83 202.603 181.345 202.603H227.941C228.456 202.603 228.95 202.807 229.314 203.17C229.678 203.533 229.882 204.025 229.883 204.539V230.474C229.882 230.987 229.678 231.48 229.314 231.843C228.95 232.205 228.456 232.41 227.941 232.41ZM181.345 203.377C181.036 203.377 180.74 203.5 180.521 203.718C180.303 203.935 180.18 204.231 180.18 204.539V230.474C180.18 230.782 180.303 231.077 180.521 231.295C180.74 231.513 181.036 231.635 181.345 231.636H227.941C228.25 231.635 228.546 231.513 228.765 231.295C228.983 231.077 229.106 230.782 229.106 230.474V204.539C229.106 204.231 228.983 203.935 228.765 203.718C228.546 203.5 228.25 203.377 227.941 203.377H181.345Z" fill="#3F3D56"/>
<path d="M319.335 209.584L311.029 213.79C308.065 215.291 305.204 215.035 304.108 211.904C303.847 211.159 303.751 210.367 303.826 209.582C303.901 208.796 304.145 208.036 304.541 207.353C304.938 206.671 305.478 206.082 306.124 205.626C306.77 205.171 307.508 204.86 308.285 204.716L316.179 203.246L349.987 192.06L370.466 177.578L377.974 189.506L354.31 202.24L319.335 209.584Z" fill="#FFB8B8"/>
<path d="M358.106 349.196L351.751 348.14L352.458 336.169H359.166L358.106 349.196Z" fill="#FFB8B8"/>
<path d="M419.782 337.504L413.632 339.418L408.853 328.415L414.841 325.4L419.782 337.504Z" fill="#FFB8B8"/>
<path d="M416.358 327.015L408.591 330.184L371.522 281.599L359.872 338.633L352.105 337.225C347.122 288.054 343.06 237.899 348.045 214.178L376.817 212.946L389.88 254.489L396.234 282.655L416.358 327.015Z" fill="#2F2E41"/>
<path d="M357.757 358.877C356.595 359.125 355.384 358.997 354.3 358.51L350.525 356.816C347.36 356.654 345.205 357.283 343.442 354.989C342.945 354.334 342.633 353.558 342.538 352.741C342.443 351.924 342.569 351.098 342.903 350.346C343.234 349.592 343.76 348.939 344.427 348.455C345.095 347.97 345.88 347.672 346.701 347.59L351.886 344.332L352.158 346.774C354.528 348.113 357.341 347.535 360.323 346.232L361.95 351.912C362.16 352.644 362.216 353.412 362.117 354.167C362.017 354.922 361.762 355.649 361.369 356.302C360.976 356.955 360.452 357.52 359.831 357.963C359.21 358.406 358.504 358.717 357.757 358.877Z" fill="#2F2E41"/>
<path d="M422.299 347.225C421.281 347.836 420.094 348.107 418.91 347.998L414.788 347.618C411.742 348.49 409.908 349.783 407.494 348.184C406.811 347.725 406.262 347.092 405.907 346.35C405.551 345.609 405.401 344.786 405.472 343.967C405.54 343.146 405.825 342.359 406.298 341.684C406.772 341.01 407.417 340.474 408.167 340.13L412.01 335.37L413.063 337.592C415.74 338.091 418.213 336.632 420.608 334.434L423.997 339.28C424.434 339.904 424.737 340.612 424.889 341.359C425.04 342.105 425.036 342.875 424.877 343.62C424.718 344.365 424.407 345.069 423.963 345.689C423.52 346.31 422.953 346.832 422.299 347.225Z" fill="#2F2E41"/>
<path d="M366.226 162.952C373.245 162.952 378.935 157.278 378.935 150.278C378.935 143.278 373.245 137.603 366.226 137.603C359.207 137.603 353.517 143.278 353.517 150.278C353.517 157.278 359.207 162.952 366.226 162.952Z" fill="#FFB8B8"/>
<path d="M381.76 177.035L365.167 173.514L363.049 159.784L374.699 157.319L381.76 177.035Z" fill="#FFB8B8"/>
<path d="M377.17 214.706H347.515L354.2 197.97C353.714 192.211 356.161 187.976 359.664 184.288L364.108 173.162C371.288 168.449 376.702 168.801 382.466 174.922C389.3 184.573 384.57 199.079 377.17 214.706Z" fill="#5A60CE"/>
<path d="M363.755 250.265L362.912 259.516C362.611 262.818 360.872 265.099 357.63 264.36C356.859 264.184 356.135 263.844 355.508 263.363C354.88 262.882 354.365 262.272 353.996 261.574C353.627 260.876 353.413 260.107 353.37 259.319C353.327 258.531 353.455 257.743 353.746 257.01L356.694 249.561L365.167 215.058L363.755 190.061H377.876L376.111 216.818L363.755 250.265Z" fill="#FFB8B8"/>
<path d="M378.936 190.765H362.696L363.834 180.201C363.909 178.373 364.666 176.64 365.957 175.341C367.248 174.042 368.979 173.271 370.81 173.18C371.781 173.132 372.751 173.276 373.666 173.604C374.58 173.932 375.42 174.438 376.137 175.092C376.854 175.746 377.434 176.535 377.843 177.414C378.252 178.293 378.483 179.244 378.521 180.212L378.936 190.765Z" fill="#5A60CE"/>
<path d="M381.956 137.246C384.594 137.246 386.733 135.113 386.733 132.482C386.733 129.851 384.594 127.718 381.956 127.718C379.318 127.718 377.179 129.851 377.179 132.482C377.179 135.113 379.318 137.246 381.956 137.246Z" fill="#2F2E41"/>
<path d="M377.033 131.315C377.112 130.107 377.65 128.973 378.537 128.146C379.424 127.319 380.594 126.86 381.808 126.863C381.71 126.85 381.612 126.835 381.511 126.829C380.247 126.748 379.003 127.172 378.052 128.006C377.101 128.84 376.522 130.017 376.44 131.277C376.359 132.538 376.783 133.779 377.619 134.727C378.455 135.676 379.635 136.255 380.898 136.337C380.999 136.343 381.098 136.341 381.197 136.341C379.992 136.189 378.891 135.584 378.117 134.651C377.344 133.717 376.956 132.524 377.033 131.315Z" fill="#2F2E41"/>
<path d="M377.006 133.35C372.746 129.825 360.526 134.305 359.738 136.674C353.976 137.457 349.614 140.809 349.614 146.77V146.77C353.04 148.169 356.935 147.997 361.146 146.77C367.859 152.225 368.319 159.083 364.237 166.961L369.259 167.061L375.485 157.987L375.783 167.191L387.295 166.961V153.771C387.333 149.385 386.32 145.054 384.343 141.137C382.549 137.661 379.765 135.631 377.006 133.35Z" fill="#2F2E41"/>
<path d="M366.286 156.653C367.547 156.653 368.57 155.225 368.57 153.464C368.57 151.702 367.547 150.274 366.286 150.274C365.024 150.274 364.001 151.702 364.001 153.464C364.001 155.225 365.024 156.653 366.286 156.653Z" fill="#FFB8B8"/>
<path d="M78.8525 157.511C78.8525 157.511 80.2277 133.775 87.3666 139.168C94.5055 144.562 84.2489 159.712 84.2489 159.712L78.8525 157.511Z" fill="#FFB9B9"/>
<path d="M52.2924 227.919C52.2924 227.919 68.1505 245.673 59.2782 246.893C50.4059 248.113 46.9158 230.168 46.9158 230.168L52.2924 227.919Z" fill="#FFB9B9"/>
<path d="M31.5991 143.881C33.5895 144.403 35.3807 145.5 36.7478 147.035C38.115 148.569 38.9971 150.472 39.2835 152.504L44.3277 188.309L51.3992 216.869C51.3992 216.869 54.9349 220.043 53.5206 221.806C52.1063 223.569 55.2885 230.973 55.2885 230.973L46.4492 233.794C46.4492 233.794 45.3884 226.39 43.6206 226.037C42.0669 225.727 24.6749 179.394 20.4828 168.17C19.9047 166.622 19.5776 165.742 19.5776 165.742C19.5776 165.742 20.2848 142.118 31.5991 143.881Z" fill="#5A60CE"/>
<path d="M33.2135 330.598L38.6429 340.193C42.8474 349.145 39.1111 350.771 28.8022 346.334L26.4523 335.004L33.2135 330.598Z" fill="#FFB9B9"/>
<path d="M35.953 343.351C35.953 343.351 38.5304 339.166 39.4626 339.866C40.3948 340.567 44.2398 343.602 44.2398 343.602L49.2482 348.386C49.2482 348.386 66.1691 350.17 55.4171 356.082C44.6652 361.995 38.7233 357.092 38.7233 357.092C38.7233 357.092 23.6642 357.873 23.9071 353.683C24.15 349.493 29.0067 342.865 29.0067 342.865C29.0067 342.865 35.1278 346.957 35.953 343.351Z" fill="#2F2E41"/>
<path d="M9.12085 222.14L14.2109 283.56C14.2109 283.56 14.3805 320.277 19.8099 327.383C25.2393 334.49 25.4089 338.043 25.4089 338.043L36.6069 332.29C36.6069 332.29 30.8383 322.704 32.0259 321.237C32.758 320.306 33.279 319.228 33.5529 318.077L30.4989 280.176L36.2676 214.188L9.12085 222.14Z" fill="#2F2E41"/>
<path d="M23.0333 330.598L18.2827 343.119L7.50879 338.627L13.1928 329.244L23.0333 330.598Z" fill="#FFB9B9"/>
<path d="M15.108 338.902C15.108 338.902 19.1488 336.383 19.6539 337.391C20.159 338.398 22.1793 342.679 22.1793 342.679L24.4523 348.976C24.4523 348.976 38.3424 357.791 26.4727 358.294C14.6029 358.798 11.5723 351.998 11.5723 351.998C11.5723 351.998 -1.8127 346.205 0.2077 342.679C2.2281 339.153 9.29942 335.497 9.29942 335.497C9.29942 335.497 12.8351 341.672 15.108 338.902Z" fill="#2F2E41"/>
<path d="M52.2163 222.309L54.931 278.823C54.931 278.823 30.1596 329.921 27.4449 331.275C26.636 331.691 25.919 332.265 25.3361 332.963C24.7533 333.66 24.3165 334.467 24.0516 335.336L9.12085 331.613L15.9076 320.784L30.8383 284.575C30.8383 284.575 33.2136 283.56 33.8923 280.176C34.571 276.792 35.9283 276.792 32.535 276.115C29.1416 275.439 29.1416 272.055 29.1416 272.055L17.9435 220.617L52.2163 222.309Z" fill="#2F2E41"/>
<path d="M53.3984 122.28C54.5992 114.901 49.5741 107.948 42.1745 106.751C34.7749 105.553 27.803 110.564 26.6022 117.944C25.4014 125.323 30.4265 132.276 37.8261 133.473C45.2257 134.671 52.1976 129.659 53.3984 122.28Z" fill="#FFB9B9"/>
<path d="M27.954 120.958C27.954 120.958 26.936 138.217 25.5786 139.909C24.2213 141.601 39.8307 141.262 39.8307 141.262C39.8307 141.262 38.8127 126.711 39.8307 125.357C40.8487 124.004 27.954 120.958 27.954 120.958Z" fill="#FFB9B9"/>
<path d="M53.2331 226.032C53.2331 226.032 14.8883 222.649 7.76404 226.032C7.76404 226.032 10.3867 216.33 9.70901 215.316C9.21616 214.575 10.5759 186.937 10.149 170.994C9.90702 161.998 7.82564 153.213 13.8762 146.534C15.9355 144.265 18.2325 142.361 20.6572 141.431C20.6572 141.431 19.9795 135.002 23.3722 134.664C23.3722 134.664 36.2697 133.308 41.0177 137.371C42.5358 138.662 43.4907 142.593 43.5919 145.981C41.2421 157.505 42.0738 170.292 44.23 183.558C44.362 184.401 44.5072 185.248 44.6524 186.095C46.9406 199.251 50.3993 212.815 53.2331 226.032Z" fill="#5A60CE"/>
<path d="M32.9094 124.101C34.0573 124.032 35.1782 124.419 36.3181 124.57C40.3965 125.11 44.6393 122.159 45.5398 118.155C45.6119 117.622 45.7713 117.105 46.0114 116.623C46.6391 115.601 48.0686 115.406 49.247 115.641C50.4254 115.876 51.5425 116.426 52.7426 116.489C54.5956 116.586 56.3745 115.448 57.362 113.882C58.2953 112.265 58.6921 110.396 58.4958 108.542L57.6075 109.471C57.2466 108.71 57.1072 107.863 57.2053 107.026C56.7346 106.901 56.2395 106.898 55.7676 107.019C55.2957 107.139 54.8626 107.379 54.51 107.714C53.7267 107.797 54.3179 106.265 53.736 105.735C53.4529 105.562 53.1156 105.499 52.7889 105.559C51.1225 105.575 49.7746 104.304 48.4615 103.281C46.1863 101.512 43.5258 100.301 40.6949 99.7476C38.8133 99.3817 36.8125 99.3228 35.028 100.022C33.5875 100.666 32.2874 101.586 31.201 102.729C28.4073 105.408 25.9334 108.555 24.7712 112.243C23.8263 115.263 23.7996 118.494 24.6943 121.53C25.1626 123.106 26.574 128.504 28.6403 128.63C31.2366 128.788 29.6778 124.293 32.9094 124.101Z" fill="#2F2E41"/>
<path d="M38.5276 145.542L43.3906 146.062C43.3906 146.062 48.1642 155.298 47.8175 157.224C47.4708 159.151 46.7159 157.981 48.8644 161.063C51.013 164.145 57.1097 172.112 57.8647 173.282C58.6196 174.451 79.2015 158.791 77.9219 154.099C77.9219 154.099 84.4223 158.749 87.2072 159.368C87.2072 159.368 65.9959 187.11 63.04 190.66C60.0842 194.211 57.7052 193.481 53.6431 191.376C49.581 189.271 29.0306 168.275 29.0306 168.275L38.5276 145.542Z" fill="#5A60CE"/>
<path opacity="0.1" d="M44.6523 186.094L27.7505 169.239L32.0277 167.848L44.2299 183.558C44.3619 184.401 44.5072 185.248 44.6523 186.094Z" fill="black"/>
</g>
<defs>
<clipPath id="clip0">
<rect width="425" height="320" fill="white" transform="translate(0 39)"/>
</clipPath>
</defs>
</svg>
