<svg width="351" height="272" viewBox="0 0 351 272" fill="none" xmlns="http://www.w3.org/2000/svg">
<path d="M162.657 272C252.49 272 325.314 269.599 325.314 266.636C325.314 263.674 252.49 261.272 162.657 261.272C72.8239 261.272 0 263.674 0 266.636C0 269.599 72.8239 272 162.657 272Z" fill="#D0CDE1"/>
<path d="M160.215 87.1939C171.275 87.1939 180.241 78.2431 180.241 67.2017C180.241 56.1603 171.275 47.2095 160.215 47.2095C149.154 47.2095 140.188 56.1603 140.188 67.2017C140.188 78.2431 149.154 87.1939 160.215 87.1939Z" fill="#5A60CE"/>
<path d="M154.917 113.427L145.855 106.504L113.412 165.165C112.393 165.35 111.451 165.83 110.704 166.545C109.956 167.261 109.436 168.18 109.209 169.189C108.981 170.197 109.056 171.25 109.423 172.217C109.791 173.183 110.436 174.02 111.277 174.623C112.118 175.227 113.118 175.57 114.153 175.609C115.187 175.649 116.211 175.384 117.096 174.847C117.981 174.31 118.688 173.525 119.129 172.589C119.57 171.654 119.725 170.609 119.576 169.586L154.917 113.427Z" fill="#FFB8B8"/>
<path d="M237.635 146.722C237.265 145.651 236.559 144.729 235.622 144.09C234.685 143.452 233.567 143.132 232.434 143.177L180.161 102.244L172.32 110.521L227.387 148.837C227.443 149.584 227.658 150.31 228.018 150.967C228.377 151.624 228.873 152.198 229.472 152.649C230.071 153.099 230.76 153.418 231.492 153.582C232.224 153.746 232.982 153.753 233.717 153.601C234.452 153.449 235.145 153.143 235.752 152.703C236.359 152.262 236.864 151.697 237.235 151.046C237.606 150.395 237.834 149.673 237.903 148.927C237.972 148.181 237.88 147.43 237.635 146.722V146.722Z" fill="#FFB8B8"/>
<path d="M176.969 260.89H183.127L186.058 237.178H176.969V260.89Z" fill="#FFB8B8"/>
<path d="M195.004 266.598H175.649V259.133H187.526C189.509 259.133 191.411 259.92 192.813 261.32C194.216 262.72 195.004 264.619 195.004 266.598V266.598Z" fill="#2F2E41"/>
<path d="M128.172 255.401L133.83 257.829L145.902 237.198L137.551 233.616L128.172 255.401Z" fill="#FFB8B8"/>
<path d="M142.484 267.755L124.702 260.126L127.654 253.268L138.566 257.949C140.388 258.731 141.825 260.203 142.559 262.042C143.294 263.881 143.267 265.936 142.484 267.755Z" fill="#2F2E41"/>
<path d="M147.367 147.195L118.072 239.322L156.522 243.434L160.215 189.593L165.219 243.434L196.345 239.779C196.345 239.779 190.722 154.506 180.488 149.022C170.254 143.539 147.367 147.195 147.367 147.195Z" fill="#2F2E41"/>
<path d="M163.251 92.0132C170.33 92.0132 176.068 86.2849 176.068 79.2188C176.068 72.1526 170.33 66.4243 163.251 66.4243C156.173 66.4243 150.435 72.1526 150.435 79.2188C150.435 86.2849 156.173 92.0132 163.251 92.0132Z" fill="#FFB8B8"/>
<path d="M162.841 151.324C153.941 151.324 145.377 150.93 144.935 150.167C144.898 150.103 144.884 150.028 144.895 149.954C144.907 149.881 144.943 149.814 144.998 149.764C145.61 148.864 144.173 134.235 141.146 110.639C140.803 107.876 141.415 105.079 142.882 102.71C144.348 100.342 146.58 98.5442 149.21 97.6148L149.266 97.6019L176.089 94.9576L176.39 95.0419C179.043 95.7785 181.367 97.394 182.978 99.6232C184.59 101.852 185.395 104.563 185.259 107.308C184.568 122.36 183.407 147.854 183.407 149.479C183.407 149.921 182.79 150.143 182.253 150.287C179.642 150.985 171.097 151.324 162.841 151.324Z" fill="#2F2E41"/>
<path d="M54.5371 44.9668L24.6286 82.2777L62.004 112.135L91.9126 74.8236L54.5371 44.9668Z" fill="#FFA451"/>
<path d="M61.7444 120.512C59.6433 120.192 57.6844 119.257 56.1153 117.826C54.5462 116.395 53.4375 114.532 52.9294 112.471C52.4212 110.411 52.5365 108.247 53.2605 106.252C53.9846 104.257 55.2849 102.522 56.9971 101.265C58.7093 100.008 60.7564 99.2856 62.8796 99.19C65.0028 99.0944 67.1068 99.6294 68.9254 100.728C70.744 101.826 72.1956 103.437 73.0966 105.359C73.9976 107.281 74.3075 109.426 73.9872 111.523C73.7745 112.916 73.2892 114.253 72.5588 115.459C71.8285 116.664 70.8674 117.714 69.7306 118.549C68.5937 119.383 67.3033 119.986 65.9331 120.323C64.5628 120.66 63.1395 120.724 61.7444 120.512ZM64.836 100.266C62.9259 99.975 60.9724 100.256 59.2224 101.074C57.4725 101.892 56.0047 103.209 55.0047 104.859C54.0048 106.51 53.5175 108.419 53.6046 110.346C53.6916 112.273 54.3491 114.131 55.4939 115.685C56.6386 117.238 58.2192 118.419 60.0358 119.076C61.8524 119.733 63.8234 119.837 65.6995 119.376C67.5756 118.915 69.2726 117.909 70.5759 116.485C71.8792 115.061 72.7303 113.283 73.0214 111.376C73.4089 108.82 72.7647 106.214 71.2302 104.131C69.6956 102.048 67.3961 100.658 64.836 100.266Z" fill="#3F3D56"/>
<path d="M38.8704 241.468C35.2022 253.701 40.8953 266.207 40.8953 266.207C40.8953 266.207 52.5359 258.881 56.2042 246.649C59.8725 234.416 54.1793 221.91 54.1793 221.91C54.1793 221.91 42.5387 229.236 38.8704 241.468Z" fill="#D0CDE1"/>
<path d="M44.44 241.799C47.5274 254.191 41.2508 266.416 41.2508 266.416C41.2508 266.416 29.9686 258.55 26.8813 246.159C23.7939 233.768 30.0705 221.543 30.0705 221.543C30.0705 221.543 41.3527 229.408 44.44 241.799Z" fill="#D0CDE1"/>
<path d="M145.227 70.7445C152.043 74.4491 159.715 76.2995 167.473 76.1101C170.444 76.0332 173.718 75.4936 175.6 73.1966C177.724 70.6048 177.192 66.5553 175.144 63.9039C173.096 61.2525 169.891 59.7579 166.695 58.7442C163.67 57.7851 160.429 57.1675 157.328 57.8379C155.691 58.1917 154.15 58.8933 152.809 59.8948C151.468 60.8964 150.358 62.1745 149.557 63.6422C148.755 65.11 148.279 66.7329 148.161 68.4006C148.044 70.0683 148.287 71.7418 148.875 73.3072" fill="#5A60CE"/>
<path d="M146.049 64.276C152.254 64.276 157.284 59.2548 157.284 53.0609C157.284 46.8669 152.254 41.8457 146.049 41.8457C139.845 41.8457 134.815 46.8669 134.815 53.0609C134.815 59.2548 139.845 64.276 146.049 64.276Z" fill="#5A60CE"/>
<path d="M349.059 54.3044L304.959 28.6456L310.616 18.9561C310.778 18.6795 310.883 18.3738 310.926 18.0566C310.969 17.7393 310.95 17.4167 310.868 17.1071C310.786 16.7975 310.644 16.507 310.45 16.2522C310.256 15.9974 310.013 15.7832 309.736 15.622C309.459 15.4608 309.153 15.3556 308.835 15.3125C308.517 15.2694 308.194 15.2892 307.884 15.3708C307.574 15.4524 307.283 15.5942 307.027 15.788C306.772 15.9819 306.558 16.2241 306.396 16.5007L300.739 26.1901L256.639 0.531277C255.743 0.0103106 254.677 -0.134237 253.675 0.129428C252.673 0.393093 251.817 1.04337 251.295 1.93722L216.86 60.9167C216.338 61.8106 216.193 62.8748 216.458 63.8753C216.722 64.8757 217.373 65.7304 218.268 66.2514L262.369 91.9103L223.752 158.052C223.591 158.328 223.485 158.634 223.442 158.951C223.399 159.269 223.419 159.591 223.5 159.901C223.582 160.211 223.724 160.501 223.918 160.756C224.113 161.011 224.355 161.225 224.632 161.386C224.909 161.548 225.216 161.653 225.534 161.696C225.851 161.739 226.175 161.719 226.485 161.637C226.795 161.556 227.086 161.414 227.341 161.22C227.597 161.026 227.811 160.784 227.973 160.507L266.589 94.3655L310.689 120.024C311.132 120.282 311.622 120.451 312.131 120.52C312.639 120.589 313.156 120.557 313.653 120.426C314.149 120.296 314.614 120.069 315.023 119.759C315.431 119.448 315.774 119.061 316.033 118.618L350.468 59.6389C350.726 59.1963 350.895 58.7072 350.964 58.1996C351.033 57.692 351.001 57.1758 350.87 56.6805C350.74 56.1851 350.512 55.7203 350.202 55.3126C349.891 54.9049 349.503 54.5623 349.059 54.3044Z" fill="#D0CDE1"/>
<path opacity="0.1" d="M287.894 89.83C289.253 87.5033 283.174 81.4397 274.317 76.2867C265.461 71.1336 257.18 68.8423 255.821 71.169C254.463 73.4957 260.541 79.5592 269.398 84.7123C278.255 89.8654 286.536 92.1566 287.894 89.83Z" fill="black"/>
<path d="M283.664 83.6834C296.613 83.6834 307.11 73.2043 307.11 60.2778C307.11 47.3513 296.613 36.8723 283.664 36.8723C270.715 36.8723 260.218 47.3513 260.218 60.2778C260.218 73.2043 270.715 83.6834 283.664 83.6834Z" fill="#5A60CE"/>
<path d="M293.865 71.8569C292.506 74.1836 282.925 75.651 275.933 71.5827C268.941 67.5145 267.185 59.4513 268.544 57.1246C269.902 54.7979 273.86 59.0889 280.852 63.1571C287.844 67.2253 295.223 69.5302 293.865 71.8569Z" fill="#F2F2F2"/>
<path d="M278.561 52.5904C281.259 52.5904 283.446 50.4073 283.446 47.7143C283.446 45.0213 281.259 42.8381 278.561 42.8381C275.863 42.8381 273.676 45.0213 273.676 47.7143C273.676 50.4073 275.863 52.5904 278.561 52.5904Z" fill="#F2F2F2"/>
<path d="M296.286 62.9029C298.983 62.9029 301.17 60.7198 301.17 58.0268C301.17 55.3338 298.983 53.1506 296.286 53.1506C293.588 53.1506 291.401 55.3338 291.401 58.0268C291.401 60.7198 293.588 62.9029 296.286 62.9029Z" fill="#F2F2F2"/>
</svg>
